<svg id="svg" version="1.1" xmlns="http://www.w3.org/2000/svg" xmlns:xlink="http://www.w3.org/1999/xlink" width="400" height="391.5796452842698" viewBox="0, 0, 400,391.5796452842698"><g id="svgg"><path id="path0" d="M96.843 118.669 C 92.777 119.240,88.925 121.699,86.859 125.042 C 86.646 125.386,86.435 125.667,86.389 125.667 C 86.294 125.667,86.471 121.030,86.598 120.208 L 86.682 119.667 76.258 119.667 L 65.833 119.667 65.833 153.250 L 65.833 186.833 76.083 186.833 L 86.333 186.833 86.336 161.292 C 86.339 136.646,86.395 133.423,86.845 132.050 C 87.390 130.389,90.264 129.738,91.517 130.992 C 92.448 131.923,92.405 130.582,92.459 159.792 L 92.509 186.833 102.765 186.833 L 113.022 186.833 112.951 159.875 C 112.878 131.851,112.870 131.534,112.189 128.083 C 110.895 121.528,104.486 117.596,96.843 118.669 M140.167 118.663 C 128.138 119.865,122.028 126.254,120.991 138.716 C 120.687 142.368,120.879 168.081,121.227 170.417 C 122.820 181.091,129.543 186.827,141.667 187.854 C 153.540 188.859,161.563 185.006,165.762 176.281 C 167.176 173.341,167.495 171.224,167.620 163.958 L 167.707 158.833 158.020 158.833 L 148.333 158.833 148.333 164.542 C 148.332 174.539,147.825 176.068,144.504 176.079 C 141.387 176.089,141.174 175.205,141.169 162.208 L 141.167 154.500 154.417 154.500 L 167.667 154.500 167.665 148.542 C 167.662 136.972,166.723 131.842,163.817 127.504 C 159.516 121.086,150.320 117.649,140.167 118.663 M194.402 118.669 C 182.888 119.792,177.132 125.621,175.479 137.833 C 174.926 141.918,175.135 167.885,175.753 172.000 C 177.267 182.069,182.928 186.827,194.583 187.825 C 207.765 188.954,216.723 184.668,220.239 175.549 C 221.726 171.694,221.896 169.333,221.907 152.417 C 221.918 136.926,221.835 135.407,220.799 132.167 C 217.780 122.720,207.382 117.403,194.402 118.669 M261.167 118.653 C 257.021 119.256,253.633 121.378,251.168 124.917 L 250.471 125.917 250.564 124.833 C 250.616 124.237,250.704 122.831,250.760 121.708 L 250.863 119.667 240.515 119.667 L 230.167 119.667 230.167 153.250 L 230.167 186.833 240.326 186.833 L 250.485 186.833 250.551 160.458 C 250.619 133.090,250.628 132.751,251.306 131.590 C 252.299 129.889,255.351 129.967,256.220 131.714 C 256.774 132.828,256.824 136.652,256.829 177.892 L 256.833 218.534 255.708 217.539 C 246.955 209.797,232.877 212.698,230.833 222.667 C 230.213 225.687,230.137 228.973,230.207 249.750 C 230.292 274.767,230.291 274.762,233.454 278.178 C 239.047 284.219,248.784 283.985,255.572 277.645 L 256.833 276.467 256.833 278.900 L 256.833 281.333 267.083 281.333 L 277.333 281.333 277.333 210.875 C 277.333 133.191,277.318 132.010,276.314 127.667 C 274.874 121.434,268.427 117.598,261.167 118.653 M145.804 130.779 C 146.920 131.594,147.154 133.037,147.162 139.125 L 147.167 143.500 144.167 143.500 L 141.167 143.500 141.173 140.125 C 141.183 133.925,141.458 131.691,142.304 130.939 C 143.045 130.278,144.996 130.189,145.804 130.779 M199.827 130.600 C 201.534 131.283,201.501 130.821,201.497 153.449 C 201.494 175.889,201.544 175.213,199.820 175.903 C 197.892 176.674,196.384 175.810,195.861 173.633 C 195.287 171.242,195.410 134.265,195.999 132.157 C 196.413 130.676,198.200 129.949,199.827 130.600 M194.408 213.347 C 183.514 214.620,177.635 220.459,176.132 231.500 C 175.822 233.781,175.824 261.466,176.134 264.083 C 177.599 276.414,185.451 282.493,199.917 282.494 C 209.418 282.494,214.986 279.917,219.217 273.561 C 221.978 269.415,222.458 267.314,222.616 258.708 L 222.714 253.333 213.024 253.333 L 203.333 253.333 203.330 258.958 C 203.325 269.224,202.838 270.668,199.380 270.666 C 196.409 270.664,196.319 270.308,196.217 258.125 L 196.140 249.000 209.423 249.000 L 222.706 249.000 222.622 241.875 C 222.504 231.788,221.927 227.994,219.893 223.953 C 215.951 216.119,206.028 211.990,194.408 213.347 M285.717 242.125 C 285.799 274.454,285.682 272.440,287.714 276.391 C 291.892 284.511,305.736 284.768,311.570 276.835 L 312.366 275.752 312.272 276.501 C 312.220 276.913,312.132 278.169,312.074 279.292 L 311.971 281.333 322.319 281.333 L 332.667 281.333 332.667 247.833 L 332.667 214.333 322.509 214.333 L 312.352 214.333 312.284 241.042 C 312.214 268.806,312.205 269.138,311.528 269.892 C 310.460 271.081,307.412 270.947,306.758 269.682 C 306.148 268.502,306.130 267.758,306.052 240.792 L 305.975 214.333 295.810 214.333 L 285.646 214.333 285.717 242.125 M200.608 225.273 C 201.876 225.874,202.167 227.460,202.167 233.762 L 202.167 238.167 199.167 238.167 L 196.167 238.167 196.167 234.708 C 196.168 230.287,196.414 226.946,196.797 226.182 C 197.344 225.090,199.259 224.633,200.608 225.273 M255.453 225.433 C 256.849 226.453,256.863 226.697,256.788 248.625 C 256.722 267.750,256.719 267.855,256.066 269.353 C 255.014 271.763,251.367 270.997,250.817 268.250 C 250.484 266.585,250.469 228.745,250.801 227.302 C 251.282 225.212,253.779 224.209,255.453 225.433 " stroke="none" fill="#fcfbfb" fill-rule="evenodd"></path><path id="path1" d="M190.417 0.099 C 175.025 0.732,158.854 3.380,144.167 7.670 C 142.563 8.139,140.762 8.663,140.167 8.835 C 132.804 10.963,120.653 15.865,111.583 20.367 C 108.212 22.041,106.293 23.061,102.125 25.397 C 97.757 27.845,91.595 31.706,87.750 34.406 C 84.545 36.656,83.242 37.582,83.167 37.663 C 83.121 37.711,81.883 38.645,80.417 39.737 C 78.950 40.829,77.712 41.772,77.667 41.833 C 77.621 41.893,76.683 42.662,75.583 43.541 C 69.150 48.683,59.603 57.638,54.394 63.417 C 52.405 65.624,50.187 68.145,49.333 69.170 C 48.921 69.666,48.352 70.337,48.069 70.661 C 47.787 70.985,46.966 72.000,46.245 72.917 C 45.524 73.833,44.887 74.621,44.830 74.667 C 43.957 75.362,35.624 87.166,32.987 91.441 C 31.328 94.131,28.515 98.833,27.968 99.833 C 23.390 108.190,20.523 114.109,17.591 121.250 C 17.253 122.075,16.834 123.087,16.662 123.500 C 16.320 124.317,14.350 129.623,13.939 130.833 C 13.799 131.246,13.525 132.029,13.330 132.574 C 9.959 141.974,6.680 155.714,4.836 168.167 C 2.303 185.283,2.337 205.869,4.931 223.917 C 6.580 235.393,9.995 249.626,13.330 258.926 C 13.525 259.471,13.799 260.254,13.939 260.667 C 14.350 261.877,16.320 267.183,16.662 268.000 C 16.834 268.412,17.253 269.425,17.591 270.250 C 21.132 278.879,25.664 287.920,30.497 296.000 C 32.472 299.301,35.763 304.445,37.162 306.417 C 40.248 310.766,41.148 312.019,41.833 312.917 C 42.252 313.467,43.080 314.554,43.673 315.333 C 44.265 316.112,44.791 316.787,44.842 316.833 C 44.893 316.879,45.524 317.667,46.245 318.583 C 46.966 319.500,47.787 320.516,48.069 320.842 C 48.352 321.167,48.958 321.876,49.417 322.417 C 56.996 331.365,67.313 341.423,75.833 348.171 C 76.796 348.934,77.621 349.607,77.667 349.667 C 78.239 350.423,90.080 358.768,94.333 361.414 C 95.479 362.126,96.809 362.962,97.289 363.271 C 97.769 363.580,98.193 363.833,98.230 363.833 C 98.268 363.833,98.812 364.145,99.438 364.525 C 100.644 365.258,103.533 366.901,105.750 368.114 C 108.914 369.846,116.483 373.544,120.064 375.109 C 120.991 375.514,121.900 375.917,122.083 376.005 C 122.796 376.348,126.552 377.824,130.717 379.400 C 133.568 380.478,139.109 382.363,141.070 382.921 C 141.811 383.132,143.322 383.571,144.429 383.897 C 157.422 387.721,170.548 390.014,186.250 391.202 C 190.081 391.492,207.781 391.493,211.333 391.203 C 217.203 390.724,219.764 390.474,223.000 390.063 C 226.287 389.646,227.048 389.538,230.500 389.000 C 233.533 388.528,239.013 387.494,241.083 387.003 C 241.450 386.917,242.762 386.609,244.000 386.320 C 246.144 385.820,247.014 385.602,249.958 384.827 C 251.350 384.461,251.381 384.452,254.000 383.667 C 258.581 382.293,263.408 380.721,265.417 379.948 C 265.783 379.807,267.133 379.300,268.417 378.822 C 273.733 376.842,279.436 374.347,285.667 371.275 C 289.580 369.346,291.192 368.496,294.500 366.618 C 294.821 366.435,295.421 366.100,295.833 365.872 C 301.255 362.875,309.295 357.611,315.833 352.778 C 318.339 350.925,325.401 345.268,326.167 344.500 C 326.212 344.454,326.550 344.162,326.917 343.851 C 330.450 340.856,335.236 336.305,339.919 331.486 C 342.945 328.373,344.682 326.467,347.500 323.167 C 348.165 322.387,348.871 321.563,349.068 321.333 C 352.193 317.705,358.165 309.757,361.279 305.083 C 363.419 301.872,367.000 296.251,367.000 296.104 C 367.000 296.071,367.525 295.172,368.167 294.107 C 368.808 293.041,369.333 292.137,369.333 292.098 C 369.333 292.058,369.719 291.364,370.190 290.555 C 372.232 287.048,377.091 277.132,378.873 272.833 C 379.234 271.962,379.628 271.025,379.748 270.750 C 380.445 269.153,381.333 266.971,381.333 266.857 C 381.333 266.784,381.530 266.242,381.771 265.654 C 382.577 263.685,384.199 259.136,384.916 256.833 C 385.130 256.146,385.543 254.833,385.834 253.917 C 388.731 244.782,391.207 233.760,392.648 223.583 C 393.209 219.621,393.582 216.413,393.830 213.417 C 393.928 212.225,394.046 210.875,394.091 210.417 C 394.763 203.559,394.763 187.941,394.091 181.083 C 394.046 180.625,393.928 179.275,393.830 178.083 C 393.083 169.049,391.068 157.017,388.835 148.265 C 388.107 145.410,387.556 143.316,387.339 142.583 C 381.784 123.800,375.407 109.231,365.879 93.548 C 365.202 92.435,361.273 86.359,361.051 86.083 C 360.977 85.992,360.698 85.579,360.432 85.167 C 358.638 82.391,350.191 71.222,349.341 70.500 C 349.287 70.454,348.870 69.967,348.414 69.417 C 347.185 67.932,345.510 66.033,342.836 63.089 C 341.516 61.637,332.827 52.943,331.432 51.679 C 330.782 51.091,329.912 50.301,329.500 49.924 C 329.087 49.548,327.887 48.502,326.833 47.600 C 325.779 46.698,324.729 45.799,324.500 45.601 C 323.877 45.062,319.640 41.646,319.002 41.167 C 318.697 40.938,317.990 40.385,317.432 39.938 C 316.874 39.491,315.565 38.516,314.523 37.771 C 313.482 37.026,312.019 35.980,311.273 35.445 C 309.775 34.373,304.694 30.995,303.100 30.013 C 302.541 29.669,301.446 28.990,300.667 28.504 C 298.964 27.443,296.827 26.167,296.752 26.167 C 296.722 26.167,295.783 25.641,294.665 24.999 C 291.331 23.084,284.973 19.807,281.333 18.128 C 278.800 16.959,275.347 15.440,273.917 14.865 C 273.458 14.681,272.350 14.223,271.453 13.848 C 270.556 13.473,269.749 13.167,269.659 13.167 C 269.569 13.167,269.365 13.097,269.206 13.013 C 267.973 12.358,259.633 9.510,254.583 8.020 C 250.845 6.917,251.318 7.046,247.250 6.005 C 237.013 3.383,226.100 1.540,215.667 0.671 C 214.521 0.576,212.646 0.418,211.500 0.321 C 209.521 0.154,193.244 -0.018,190.417 0.099 M103.250 118.900 C 108.230 120.262,111.265 123.365,112.250 128.099 C 112.944 131.437,112.995 133.684,112.998 160.875 L 113.000 186.833 102.758 186.833 L 92.515 186.833 92.453 159.958 C 92.387 131.234,92.410 131.955,91.561 131.106 C 90.638 130.183,88.227 130.259,87.385 131.238 C 86.386 132.399,86.341 133.714,86.337 161.958 L 86.333 186.833 76.083 186.833 L 65.833 186.833 65.833 153.250 L 65.833 119.667 76.268 119.667 L 86.704 119.667 86.597 121.708 C 86.538 122.831,86.448 124.200,86.396 124.750 L 86.301 125.750 86.848 124.917 C 90.163 119.863,97.258 117.260,103.250 118.900 M148.177 118.750 C 157.853 120.017,164.274 125.099,166.388 133.167 C 167.419 137.100,167.663 139.959,167.665 148.125 L 167.667 154.500 154.500 154.500 L 141.333 154.500 141.337 163.208 C 141.341 175.436,141.499 176.079,144.478 176.042 C 147.735 176.001,148.131 174.871,148.280 165.208 L 148.381 158.667 158.044 158.667 L 167.707 158.667 167.621 164.375 C 167.494 172.849,167.018 174.897,164.190 179.151 C 160.086 185.324,154.274 187.987,144.884 187.997 C 130.441 188.012,122.345 181.643,121.074 169.268 C 120.694 165.568,120.811 138.026,121.216 135.727 C 122.528 128.289,125.214 124.201,130.661 121.353 C 133.308 119.969,135.709 119.263,140.000 118.609 C 141.155 118.433,146.454 118.524,148.177 118.750 M204.333 118.979 C 213.833 120.801,219.988 126.385,221.408 134.468 C 222.301 139.552,222.259 166.369,221.350 171.667 C 219.454 182.709,211.135 188.298,197.113 187.951 C 182.451 187.588,176.350 182.167,175.319 168.586 C 175.005 164.442,175.201 138.852,175.566 136.500 C 177.233 125.741,182.606 120.347,193.250 118.746 C 195.529 118.403,202.045 118.540,204.333 118.979 M266.676 118.741 C 271.955 119.751,275.529 123.177,276.509 128.167 C 277.248 131.927,277.218 128.839,277.283 207.458 L 277.345 281.500 267.089 281.500 L 256.833 281.500 256.833 279.074 L 256.833 276.648 255.526 277.800 C 246.271 285.956,232.813 283.300,230.773 272.917 C 230.206 270.026,230.167 268.405,230.168 247.798 C 230.170 226.229,230.213 224.763,230.925 221.899 C 233.243 212.570,247.614 209.951,255.615 217.399 L 256.849 218.548 256.778 176.482 C 256.706 133.883,256.687 132.668,256.093 131.519 C 255.443 130.262,252.930 130.035,251.786 131.130 C 250.570 132.292,250.504 133.931,250.502 162.875 L 250.500 186.833 240.250 186.833 L 230.000 186.833 230.000 153.250 L 230.000 119.667 240.441 119.667 L 250.881 119.667 250.762 122.435 C 250.696 123.958,250.607 125.326,250.563 125.477 C 250.502 125.689,250.533 125.680,250.700 125.440 C 254.638 119.799,260.143 117.491,266.676 118.741 M143.500 130.523 C 141.567 130.885,141.470 131.229,141.374 138.042 L 141.297 143.500 144.232 143.500 L 147.167 143.500 147.163 139.458 C 147.156 131.461,146.539 129.955,143.500 130.523 M197.879 130.495 C 195.601 131.036,195.667 130.364,195.667 153.272 C 195.667 174.930,195.670 174.976,197.206 175.770 C 199.428 176.920,201.061 175.603,201.356 172.423 C 201.648 169.268,201.455 133.429,201.140 132.368 C 200.776 131.139,199.208 129.964,198.450 130.350 C 198.432 130.360,198.175 130.425,197.879 130.495 M203.833 213.440 C 212.849 214.835,218.893 219.540,221.143 226.917 C 222.353 230.881,222.667 234.076,222.667 242.433 L 222.667 249.000 209.500 249.000 L 196.333 249.000 196.339 257.958 C 196.348 270.248,196.500 270.820,199.695 270.617 C 202.832 270.418,203.333 268.745,203.333 258.458 L 203.333 253.333 213.000 253.333 L 222.667 253.333 222.667 258.007 C 222.667 267.333,221.842 270.444,218.101 275.232 C 213.567 281.036,205.944 283.497,195.831 282.424 C 184.128 281.182,177.737 275.499,176.143 264.917 C 175.820 262.774,175.812 232.684,176.134 230.833 C 177.154 224.970,178.655 221.643,181.518 218.905 C 186.445 214.191,195.055 212.082,203.833 213.440 M306.174 239.958 C 306.181 265.216,306.239 268.502,306.689 269.421 C 307.520 271.118,310.932 271.115,311.683 269.418 C 312.217 268.211,312.329 262.760,312.331 237.792 L 312.333 214.333 322.584 214.333 L 332.834 214.333 332.792 247.875 L 332.750 281.417 322.375 281.460 L 312.000 281.503 312.013 280.126 C 312.021 279.369,312.078 278.131,312.141 277.375 C 312.204 276.619,312.246 276.000,312.235 276.000 C 312.224 276.000,311.912 276.431,311.542 276.958 C 305.794 285.146,291.511 284.518,287.392 275.897 C 285.637 272.223,285.668 272.845,285.667 241.125 L 285.667 214.333 295.917 214.333 L 306.167 214.333 306.174 239.958 M197.903 225.237 C 196.557 225.823,196.333 226.989,196.333 233.423 L 196.333 238.000 199.250 238.000 L 202.167 238.000 202.164 234.458 C 202.159 228.014,201.833 226.068,200.636 225.338 C 199.988 224.943,198.688 224.895,197.903 225.237 M252.417 225.202 C 250.632 225.830,250.757 224.247,250.704 246.904 C 250.650 269.782,250.633 269.517,252.175 270.371 C 254.152 271.467,256.106 270.197,256.523 267.546 C 256.785 265.875,256.917 232.062,256.672 229.273 C 256.347 225.568,255.011 224.290,252.417 225.202 " stroke="none" fill="#fc6c04" fill-rule="evenodd"></path><path id="path2" d="M141.236 140.417 C 141.236 142.158,141.261 142.848,141.291 141.950 C 141.321 141.051,141.321 139.626,141.291 138.783 C 141.261 137.940,141.236 138.675,141.236 140.417 M141.244 162.250 C 141.244 166.558,141.265 168.345,141.291 166.220 C 141.318 164.095,141.318 160.570,141.292 158.386 C 141.265 156.203,141.244 157.942,141.244 162.250 M198.044 213.120 C 198.297 213.158,198.672 213.157,198.877 213.117 C 199.082 213.078,198.875 213.046,198.417 213.048 C 197.958 213.049,197.791 213.081,198.044 213.120 M243.708 213.115 C 243.869 213.157,244.131 213.157,244.292 213.115 C 244.452 213.073,244.321 213.039,244.000 213.039 C 243.679 213.039,243.548 213.073,243.708 213.115 M332.748 247.833 C 332.748 266.304,332.768 273.860,332.792 264.625 C 332.815 255.390,332.815 240.277,332.792 231.042 C 332.768 221.806,332.748 229.362,332.748 247.833 M250.580 247.583 C 250.580 257.117,250.600 260.992,250.625 256.196 C 250.650 251.399,250.650 243.599,250.625 238.862 C 250.600 234.126,250.580 238.050,250.580 247.583 " stroke="none" fill="#fca15d" fill-rule="evenodd"></path><path id="path3" d="M230.082 153.250 C 230.082 171.767,230.101 179.317,230.125 170.028 C 230.149 160.740,230.149 145.590,230.125 136.362 C 230.101 127.134,230.082 134.733,230.082 153.250 M112.879 136.000 C 112.879 136.412,112.911 136.581,112.951 136.375 C 112.991 136.169,112.991 135.831,112.951 135.625 C 112.911 135.419,112.879 135.587,112.879 136.000 M141.212 136.667 C 141.212 137.079,141.245 137.248,141.284 137.042 C 141.324 136.835,141.324 136.498,141.284 136.292 C 141.245 136.085,141.212 136.254,141.212 136.667 M195.580 153.250 C 195.580 162.783,195.600 166.659,195.625 161.862 C 195.650 157.066,195.650 149.266,195.625 144.529 C 195.600 139.792,195.580 143.717,195.580 153.250 M221.875 140.583 C 221.877 140.950,221.911 141.080,221.951 140.873 C 221.991 140.666,221.990 140.366,221.948 140.206 C 221.906 140.047,221.874 140.217,221.875 140.583 M221.883 163.333 C 221.883 163.837,221.915 164.044,221.953 163.792 C 221.991 163.540,221.991 163.127,221.953 162.875 C 221.915 162.623,221.883 162.829,221.883 163.333 M306.081 238.583 C 306.081 251.967,306.101 257.466,306.125 250.805 C 306.149 244.143,306.149 233.193,306.125 226.471 C 306.101 219.750,306.081 225.200,306.081 238.583 M196.239 234.250 C 196.239 236.450,196.262 237.327,196.291 236.199 C 196.320 235.071,196.320 233.271,196.291 232.199 C 196.262 231.127,196.238 232.050,196.239 234.250 M196.244 257.333 C 196.244 261.962,196.265 263.856,196.292 261.542 C 196.318 259.227,196.318 255.440,196.292 253.125 C 196.265 250.810,196.244 252.704,196.244 257.333 M285.705 266.667 C 285.705 266.987,285.740 267.119,285.782 266.958 C 285.823 266.798,285.823 266.535,285.782 266.375 C 285.740 266.215,285.705 266.346,285.705 266.667 M199.048 282.623 C 199.578 282.657,200.403 282.656,200.881 282.623 C 201.359 282.589,200.925 282.562,199.917 282.562 C 198.908 282.563,198.517 282.590,199.048 282.623 M243.121 282.620 C 243.417 282.657,243.942 282.658,244.288 282.622 C 244.634 282.586,244.392 282.555,243.750 282.555 C 243.108 282.554,242.825 282.583,243.121 282.620 M299.208 282.621 C 299.552 282.657,300.115 282.657,300.458 282.621 C 300.802 282.585,300.521 282.556,299.833 282.556 C 299.146 282.556,298.865 282.585,299.208 282.621 " stroke="none" fill="#fcb47a" fill-rule="evenodd"></path><path id="path4" d="M153.125 158.792 C 155.806 158.817,160.194 158.817,162.875 158.792 C 165.556 158.766,163.362 158.745,158.000 158.745 C 152.637 158.745,150.444 158.766,153.125 158.792 M197.700 238.124 C 198.497 238.154,199.847 238.155,200.700 238.124 C 201.552 238.094,200.900 238.069,199.250 238.069 C 197.600 238.069,196.902 238.093,197.700 238.124 M285.705 268.167 C 285.705 268.487,285.740 268.619,285.782 268.458 C 285.823 268.298,285.823 268.035,285.782 267.875 C 285.740 267.715,285.705 267.846,285.705 268.167 M289.000 278.552 C 289.000 278.581,289.244 278.825,289.542 279.094 L 290.083 279.583 289.594 279.042 C 289.138 278.537,289.000 278.423,289.000 278.552 M261.875 281.458 C 264.694 281.484,269.306 281.484,272.125 281.458 C 274.944 281.433,272.637 281.412,267.000 281.412 C 261.362 281.412,259.056 281.433,261.875 281.458 M317.125 281.458 C 319.990 281.484,324.677 281.484,327.542 281.458 C 330.406 281.433,328.063 281.412,322.333 281.412 C 316.604 281.412,314.260 281.433,317.125 281.458 " stroke="none" fill="#fc872e" fill-rule="evenodd"></path></g></svg>