<?xml version="1.0" encoding="utf-8"?>
<!-- Generator: Adobe Illustrator 27.9.0, SVG Export Plug-In . SVG Version: 6.00 Build 0)  -->
<svg version="1.1" id="Network_Sphere" xmlns="http://www.w3.org/2000/svg" xmlns:xlink="http://www.w3.org/1999/xlink" x="0px"
	 y="0px" viewBox="0 0 1000 250" style="enable-background:new 0 0 1000 250;" xml:space="preserve">
<style type="text/css">
	.st0{opacity:0.4;fill:#606060;enable-background:new    ;}
	.st1{fill:#F46300;}
	.st2{fill:#1C3664;}
</style>
<g>
	<g>
		<g>
			<path class="st0" d="M225.2,95.2c0.1,0.3,0.2,0.7,0.3,1l0.7,2.7C226,98.2,226,98.2,225.2,95.2L225.2,95.2z"/>
			<path class="st0" d="M227.3,103.7c0-0.2-0.1-0.3-0.1-0.5l0.2,0.8l0.1,0.7L227.3,103.7C227.3,103.7,227.3,103.7,227.3,103.7
				L227.3,103.7z"/>
			<path class="st0" d="M227.1,147.4c-0.1,0.3-0.1,0.6-0.2,0.9c-0.9,2.9-2.2,6.7-3.3,9.4c0-0.1,0.1-0.3,0.1-0.5
				C224.7,154.3,226.2,150.4,227.1,147.4L227.1,147.4z"/>
			<path class="st0" d="M222.1,162c0.1-0.2,0.1-0.3,0.2-0.5c-0.4,1.5-1,3.6-1.5,5l-0.3,0.7C221,165.7,221.7,163.6,222.1,162
				C222.1,162,222.1,162,222.1,162L222.1,162z"/>
			<path class="st0" d="M135.4,227.2c-0.2,0-0.5,0-0.7,0.1c-0.3,0-2,0-6.2,0.1c0.1-0.1,0.1-0.1,4-0.1
				C134.9,227.2,135.3,227.2,135.4,227.2L135.4,227.2z"/>
			<path class="st0" d="M51,56.4c0.5-0.2,0.7-0.3,2.9-0.5c-0.1,0.1-0.1,0.2-0.2,0.3c-0.1,0.1-0.1,0.2-0.2,0.2
				c-0.4,0.1-1,0.1-1.4,0.1c0,0-1.2,0.1-1.5,0.3C50.7,56.7,50.9,56.6,51,56.4L51,56.4z"/>
			<path class="st0" d="M156.9,27c-0.1,0-0.2-0.1-0.3-0.1c2.1,0.7,4.9,1.6,6.9,2.3c0.3,0.1,0.7,0.3,1,0.4
				C162.3,28.8,159.2,27.7,156.9,27C156.9,27,156.9,27,156.9,27L156.9,27z"/>
			<path class="st0" d="M221.4,163.3c0.1-0.1,0.1-0.2,0.2-0.3c-3.1,8.5-3.3,8.9-7.3,15.9c-0.2,0.3-0.4,0.7-0.6,1
				C218.3,171.7,218.5,171.4,221.4,163.3C221.4,163.3,221.4,163.3,221.4,163.3L221.4,163.3z"/>
			<path class="st0" d="M89.2,29.8c1.4-0.5,1.4-0.5,3.3-0.9c-0.2,0.1-0.4,0.2-0.6,0.2c-0.4,0.1-1,0.2-1.4,0.3
				c-0.6,0.1-1.4,0.4-1.9,0.6C88.8,29.9,89,29.9,89.2,29.8L89.2,29.8z"/>
			<path class="st0" d="M71.7,38.8c6.9-4.1,9.1-5.4,18.8-9.1c-3.5,1.6-7.2,2.9-10.6,4.6c-2.7,1.3-6.2,3.4-8.8,5
				C71.2,39.1,71.5,39,71.7,38.8L71.7,38.8z"/>
			<path class="st0" d="M123.5,22.6c0.1,0,0.3,0,0.3,0c-8.9,0.6-16,1-28.1,5.2c-0.1,0-0.2,0.1-0.3,0.1
				C103.2,25.3,109.3,23.3,123.5,22.6C123.5,22.6,123.5,22.6,123.5,22.6L123.5,22.6z"/>
			<path class="st0" d="M106.7,27.8c-0.1,0.1-0.2,0.2-0.3,0.2c-4.4,0.3-8.8,0.5-13.2,0.9C93.7,28.7,94.3,28.4,106.7,27.8L106.7,27.8
				z"/>
			<path class="st0" d="M115.4,226.8l1.2,0.1c0,0,0.1,0,0.1,0C116.3,226.9,115.8,226.9,115.4,226.8L115.4,226.8z"/>
			<path class="st0" d="M50.6,193.1c0.2,0.3,0.4,0.5,0.7,0.7C51,193.6,50.8,193.4,50.6,193.1L50.6,193.1z"/>
			<path class="st0" d="M81.6,216.8c-1.6-0.9-1.6-0.9-2.2-1.9c-0.2-0.3,0-1,0.2-1.3c0.2,0.1,0.3,0.2,0.5,0.3c-0.1,0.4-0.4,1-0.2,1.3
				c0.5,0.7,0.7,1.1,2.2,1.9C82,217,81.8,216.9,81.6,216.8L81.6,216.8z"/>
			<path class="st0" d="M29,95.2c3.3-9.3,7.4-20.8,23-36.8c-0.8,2.1-3.5,3.8-5,5.4c-4.6,5-13.2,15.8-18.3,32.2l0-0.1
				C28.9,95.7,28.9,95.4,29,95.2L29,95.2z"/>
			<path class="st0" d="M27.8,99.7c0.1-0.2,0.1-0.4,0.1-0.6c0.8,1.4,3.8,2.5,16.8,4.3c-0.1,0.3-0.1,0.4-0.1,0.6
				C33,102.5,28.1,101.2,27.8,99.7C27.8,99.8,27.8,99.7,27.8,99.7L27.8,99.7z"/>
			<path class="st0" d="M50,192.4c-0.1-0.1-0.2-0.2-0.3-0.3c7.9,8,13.3,12.2,27.6,19.9c0.1,0.1,0.2,0.2,0.3,0.2
				C63.3,204.6,58,200.4,50,192.4C50,192.4,50,192.4,50,192.4L50,192.4z"/>
			<path class="st0" d="M48.4,190.5c-0.1-0.1-0.3-0.3-0.4-0.5c1.1,0.1,2.9,0.3,22.9,0.7c0.1,0.1,0.2,0.3,0.3,0.4
				C60.5,191.2,49.2,190.7,48.4,190.5C48.4,190.6,48.4,190.6,48.4,190.5L48.4,190.5z"/>
			<path class="st0" d="M53.5,153.9c0.1,0.1,0.2,0.3,0.2,0.4c-9.2,11.5-15.1,20.8-6.6,34.7C35.6,174.9,48.6,159.6,53.5,153.9
				L53.5,153.9z"/>
			<path class="st0" d="M26,141.9c-1.1-13,3.8-22.5,18.5-36.1c0,0.1,0,0.3,0.1,0.5c-13.3,13-19.9,22.2-18.5,36.5
				C26.1,142.4,26,142.1,26,141.9L26,141.9z"/>
			<path class="st0" d="M27.7,150.1c0.6,0.3,1.7,0.9,25.2,1.8c0.1,0.3,0.1,0.3,0.1,0.6c-6.4-0.2-24.7-0.9-25.1-1.7
				C27.8,150.5,27.8,150.3,27.7,150.1L27.7,150.1z"/>
			<path class="st0" d="M200.8,176.8c0.1-0.2,0.3-0.4,0.3-0.5c6.2,5.2,8.6,8.9,4.4,14.7c-0.1,0.2-0.3,0.3-0.4,0.5
				C208.3,186.8,208.5,183.2,200.8,176.8C200.7,176.8,200.8,176.8,200.8,176.8L200.8,176.8z"/>
			<path class="st0" d="M121,227.3c-0.2,0-0.4,0-0.6,0c0.4,0,0.9,0,2.5,0.1c0.2,0,0.3,0,0.5,0C121.7,227.3,121.3,227.3,121,227.3
				C121,227.3,121,227.3,121,227.3L121,227.3z"/>
			<path class="st0" d="M81.7,214.8c0.1,0.1,0.3,0.1,0.4,0.2c4.5,2.4,8.5,5.5,13.4,7.2c9.1,3.1,12.6,3.7,22.3,4.9
				C96.8,225.1,86.2,217.9,81.7,214.8L81.7,214.8z"/>
			<path class="st0" d="M143.6,224.3c-1,0.4-13.4,2.6-14.8,2.8c0.1,0,0.1-0.1,3.1-0.6C137.6,225.6,140.9,224.9,143.6,224.3
				L143.6,224.3z"/>
			<path class="st0" d="M52.9,58.6c0.1-0.1,0.2-0.2,0.3-0.2c-4.2,7.9-10.5,19.7-6.8,42.2c-0.1,0.1-0.3,0.2-0.4,0.3
				C44.7,90.9,42.7,75.9,52.9,58.6C52.8,58.6,52.8,58.6,52.9,58.6L52.9,58.6z"/>
			<path class="st0" d="M89.3,30.3L89.3,30.3c-9.1,4.4-19.5,9.4-32.3,23C63.4,46.8,72,38,89.3,30.3L89.3,30.3L89.3,30.3z"/>
			<path class="st0" d="M90.8,29.8c0.1-0.1,0.3-0.1,0.4-0.2c-5.5,3-15.8,8.7-13.5,21.6c-0.2,0.1-0.3,0.2-0.5,0.3
				C76.6,46.3,75.6,37.5,90.8,29.8C90.8,29.8,90.8,29.8,90.8,29.8L90.8,29.8z"/>
			<path class="st0" d="M75.9,53.1c-0.1,0.2-0.2,0.2-0.3,0.5c-11.2,1.1-14.8,1.6-20.2,2.6C55.8,55.7,56.4,55.1,75.9,53.1L75.9,53.1z
				"/>
			<path class="st0" d="M72.6,192.8c0.2,0.2,0.3,0.2,0.5,0.4c-0.5,6.8-0.5,11.7,5.9,19C78.9,212.1,71.1,206.9,72.6,192.8L72.6,192.8
				z"/>
			<path class="st0" d="M83.1,215c-0.1-0.1-0.1-0.1-0.2-0.2c10.9,5.2,22,10.1,37.7,12.2c0.1,0,0.1,0,0.2,0
				C111.6,225.8,101,223.7,83.1,215C83.1,215.1,83.1,215.1,83.1,215L83.1,215z"/>
			<path class="st0" d="M82.4,214.4c-0.1-0.1-0.2-0.2-0.3-0.3c7.9,3.1,16.4,6.3,32.4,10.5c0.1,0,0.1,0.1,0.1,0.1
				C98.1,220.6,87.5,216.5,82.4,214.4C82.4,214.5,82.4,214.4,82.4,214.4L82.4,214.4z"/>
			<path class="st0" d="M46.7,107.9c0.1,0,0.3-0.1,0.3-0.1c0.5,10,1.1,22.4,7.3,40.6c-0.1,0-0.3,0.1-0.4,0.1
				C50.8,138.6,47,126.2,46.7,107.9C46.7,108,46.7,107.9,46.7,107.9L46.7,107.9z"/>
			<path class="st0" d="M75.4,55.7c0.1,0,0.1,0.1,0.2,0.1c-11.4,13.9-19.1,25.1-27.3,44.6c-0.1,0-0.1-0.1-0.2-0.1
				C54.3,85.3,60.7,73.3,75.4,55.7L75.4,55.7z"/>
			<path class="st0" d="M77.4,55.6c0.1-0.1,0.3-0.1,0.4-0.2c-0.9,14.2,1.6,28.1,17.3,56.8c-0.2,0.1-0.4,0.2-0.5,0.3
				C82.3,89.7,75.6,73,77.4,55.6C77.4,55.6,77.4,55.6,77.4,55.6L77.4,55.6z"/>
			<path class="st0" d="M49,105c0-0.1,0.1-0.3,0.1-0.6c6.8,2,17.1,5,44,10.3c0,0.1-0.1,0.3-0.1,0.5c-17.4-3-34.6-7.3-44-10.1
				C49,105.1,49,105,49,105L49,105z"/>
			<path class="st0" d="M105.1,29.1c-7,4.6-14.3,9.3-24.8,21.4c-0.1,0-0.2-0.1-0.3-0.1C85.9,44,93.3,36,105.1,29.1L105.1,29.1z"/>
			<path class="st0" d="M117,43.9c0,0.1,0,0.3,0,0.4c-12,2.6-24.4,5.3-36.8,8.4c0.1-0.1,0.1-0.2,0.2-0.3
				C85.8,50.9,91.4,49.4,117,43.9L117,43.9z"/>
			<path class="st0" d="M93.3,117.8c0.1,0.1,0.2,0.3,0.2,0.4c-16.5,13-24.8,19.5-36.1,32.1c-0.1-0.1-0.2-0.3-0.3-0.4
				C62.2,144,69.1,135.9,93.3,117.8L93.3,117.8z"/>
			<path class="st0" d="M75.5,193.8c0.1,0,0.2-0.1,0.2-0.1c6.3,6.9,21,23,38.4,30.6C109.1,222,94,215,75.5,193.8
				C75.4,193.8,75.5,193.8,75.5,193.8L75.5,193.8z"/>
			<path class="st0" d="M56.4,156c0.1,0,0.3,0,0.4-0.1c3.6,10.4,6.2,17.9,14.7,32c-0.1,0-0.2,0-0.3,0.1
				C65.2,178,61.6,171.6,56.4,156C56.4,156,56.4,156,56.4,156L56.4,156z"/>
			<path class="st0" d="M58.2,152.8c0-0.1,0-0.3-0.1-0.6c10.6,1.2,19.8,2.2,42.6,4.2c0,0.1,0,0.3,0,0.5
				C83.1,155.7,60.7,153.2,58.2,152.8C58.2,152.9,58.2,152.8,58.2,152.8L58.2,152.8z"/>
			<path class="st0" d="M75.9,192.2c0-0.1-0.1-0.2-0.1-0.4c8.1,3,13.9,5.1,31,10.7c0,0.1,0,0.3,0,0.4
				C89.8,197.3,84.3,195.4,75.9,192.2C75.9,192.2,75.9,192.2,75.9,192.2L75.9,192.2z"/>
			<path class="st0" d="M104.2,160.7c0.1,0,0.3,0,0.4,0c1.2,19.7,1.7,27.8,4.5,40.3c-0.1,0-0.3,0-0.4,0
				C107.1,194,104.8,183.3,104.2,160.7L104.2,160.7z"/>
			<path class="st0" d="M101.4,159c0.2,0.2,0.2,0.3,0.4,0.5c-11.3,9.4-21.8,18.7-27.5,29.9c-0.2-0.2-0.2-0.2-0.5-0.4
				C77.2,183,81.3,175.5,101.4,159L101.4,159z"/>
			<path class="st0" d="M107.1,28.6c0.1-0.1,0.2-0.1,0.3-0.2c-0.5,3.7,1,6.6,10.4,13.6c-0.1,0.1-0.2,0.2-0.3,0.3
				C108.8,35.8,106.5,32.8,107.1,28.6C107.1,28.7,107.1,28.7,107.1,28.6L107.1,28.6z"/>
			<path class="st0" d="M126.7,22.5c0.1,0,0.3,0,0.4,0C126.9,22.5,126.8,22.5,126.7,22.5C126.7,22.5,126.7,22.5,126.7,22.5
				L126.7,22.5z"/>
			<path class="st0" d="M125.4,22.5c0.2,0,0.4,0,0.6,0c-12.6,0.3-18.8,1.9-18.4,4.9c-0.1,0.1-0.3,0.1-0.4,0.2
				C106.9,24.6,113,22.9,125.4,22.5C125.3,22.5,125.4,22.5,125.4,22.5L125.4,22.5z"/>
			<path class="st0" d="M127.1,22.5C127.2,22.5,127.2,22.6,127.1,22.5c-0.4,0.3-0.7,0.4-2.8,0.9c-5,1.4-10.1,2.6-15.2,4
				c0.2-0.1,0.2-0.1,3.6-1.1c0.4-0.1,1.9-0.5,8.3-2.2C126.3,22.9,126.7,22.8,127.1,22.5C127.2,22.5,127.2,22.5,127.1,22.5
				L127.1,22.5z"/>
			<path class="st0" d="M128.1,227.2c-0.1,0.1-0.1,0.1-1.2,0.1c-2.4,0.1-3.1,0.1-3.3,0.1c-0.1,0-0.3,0-0.5,0
				C124.3,227.3,125.7,227.3,128.1,227.2L128.1,227.2z"/>
			<path class="st0" d="M116.5,225.6c0.6,0.2,1.1,0.6,1.7,0.8c1.1,0.3,2.7,0.7,3.9,0.9C118.9,226.9,117.5,226.1,116.5,225.6
				L116.5,225.6z"/>
			<path class="st0" d="M181.8,38.4c0.2,0.1,0.4,0.2,0.6,0.4c0.5,0.4,1.2,0.9,1.5,1.4c0.2,0.3,0.1,0.9,0.1,1.3
				c-0.2-0.1-0.3-0.3-0.5-0.4c0.1-0.5,0.1-1.1-0.2-1.5C182.9,39.1,182.2,38.7,181.8,38.4L181.8,38.4z"/>
			<path class="st0" d="M108.8,205.6c0.2,0.1,0.2,0.1,0.4,0.2c-0.5,5.5-1.4,13.8,5.7,18.6C114.9,224.4,106.6,221,108.8,205.6
				L108.8,205.6z"/>
			<path class="st0" d="M117.4,225.4c-0.1,0-0.2-0.1-0.3-0.1c7.1,1.1,9.5,1.4,11.1,1.8c-0.2,0.1-0.5-0.1-0.6-0.1
				C125.7,226.7,123.9,226.4,117.4,225.4C117.4,225.4,117.4,225.4,117.4,225.4L117.4,225.4z"/>
			<path class="st0" d="M127.5,22.6c1,0.7,1.6,1.1,0.1,5.5c-1.2,3.3-4.2,8.9-6.6,13.4c-0.1,0-0.2-0.1-0.3-0.1
				C127.2,28.9,129.7,24.2,127.5,22.6L127.5,22.6z"/>
			<path class="st0" d="M137.3,221.3C137.3,221.3,137.4,221.3,137.3,221.3c-3.3,2.7-5.3,4.3-8.2,5.6
				C131.7,225.4,133,224.7,137.3,221.3L137.3,221.3z"/>
			<path class="st0" d="M111.4,205.7c0.1,0,0.1-0.1,0.2-0.2c13.9,14.1,18.1,18.9,17.1,21.4c0,0-0.1,0-0.1,0
				C129.2,224.3,126.3,220.7,111.4,205.7C111.3,205.7,111.4,205.7,111.4,205.7L111.4,205.7z"/>
			<path class="st0" d="M134.9,190.3c0.1,0.2,0.1,0.2,0.2,0.4c-14.4,6.9-16.6,7.9-23.6,11.9c-0.1-0.1-0.1-0.1-0.3-0.3
				C119.2,197.6,122.7,195.9,134.9,190.3L134.9,190.3z"/>
			<path class="st0" d="M111.9,204.9c0-0.1,0.1-0.1,0.1-0.3c16.6,8,22.1,10.9,26.3,14.6c-0.1,0.1-0.2,0.1-0.2,0.2
				C132.8,215.3,128.9,213.1,111.9,204.9C111.9,204.9,111.9,204.9,111.9,204.9L111.9,204.9z"/>
			<path class="st0" d="M118.4,45.9c0.1,0,0.3,0.1,0.4,0.1c-9.6,26.6-14.4,39.9-20.8,65.9c-0.1,0-0.3-0.1-0.4-0.1
				C100.5,98.4,105,81.1,118.4,45.9L118.4,45.9z"/>
			<path class="st0" d="M221.5,161c0,0.1-2.3,5-19.6,13.7c0.1-0.3,0.1-0.3,0.2-0.5C210.3,169.9,216.1,166.6,221.5,161L221.5,161z"/>
			<path class="st0" d="M139.6,69.9c0.1,0.1,0.2,0.2,0.3,0.3c-12.7,14.9-27.1,28.2-40.3,42.7c-0.1-0.1-0.2-0.3-0.3-0.3
				C112.3,97.9,126.7,84.6,139.6,69.9L139.6,69.9z"/>
			<path class="st0" d="M107.1,159.9c0.2-0.1,0.3-0.3,0.4-0.4c24.8,23.2,24.8,23.2,28.7,27.2c-0.1,0.1-0.2,0.2-0.3,0.3
				C133.9,185.2,133.9,185.2,107.1,159.9C107.1,159.9,107.1,159.9,107.1,159.9L107.1,159.9z"/>
			<path class="st0" d="M108.2,157.6c0-0.2,0-0.4,0-0.5c51.4,4.2,51.4,4.2,57.1,4.7c-0.1,0.2-0.1,0.4-0.1,0.6
				C161.6,162,161.6,162,108.2,157.6C108.1,157.6,108.2,157.6,108.2,157.6L108.2,157.6z"/>
			<path class="st0" d="M97,119.8c0.1,0,0.3,0,0.5-0.1c1.6,10.3,2.8,18.4,6.2,33.6c-0.1,0-0.3,0-0.5,0.1
				C101.5,145.9,99.3,136.7,97,119.8C97,119.8,97,119.8,97,119.8L97,119.8z"/>
			<path class="st0" d="M100.5,116.2c0-0.2,0-0.4,0-0.6c21.3,1.1,42.6,2.2,63.9,3.3c0,0.2,0,0.5,0,0.7
				C143.1,118.4,121.8,117.4,100.5,116.2C100.5,116.3,100.5,116.2,100.5,116.2L100.5,116.2z"/>
			<path class="st0" d="M164.8,121.3c0.1,0.2,0.2,0.4,0.3,0.6c-18.7,12-38.4,22.2-57.4,33.5c-0.1-0.2-0.2-0.4-0.3-0.5
				C126.5,143.6,146.2,133.3,164.8,121.3L164.8,121.3z"/>
			<path class="st0" d="M120.8,45.5c0.1-0.1,0.2-0.2,0.3-0.2c4.8,5.7,6.2,7.5,18.6,19.8c-0.2,0.1-0.2,0.2-0.4,0.3
				C128.2,54.3,125.2,51.1,120.8,45.5C120.8,45.5,120.8,45.5,120.8,45.5L120.8,45.5z"/>
			<path class="st0" d="M132.1,25c0.1,0,0.1,0.1,0.2,0.1c0.1,3.4-1,6.2-10.8,16.7c-0.1-0.1-0.1-0.1-0.3-0.2
				C128.2,33.9,132.5,29,132.1,25L132.1,25z"/>
			<path class="st0" d="M152.1,37.7c0.1,0.1,0.1,0.2,0.2,0.3c-7,1.7-14.6,3-30.4,5.4c0-0.1,0-0.3,0-0.4
				C133.7,41.1,142.9,39.7,152.1,37.7L152.1,37.7z"/>
			<path class="st0" d="M148.4,26.5c11.2,4.9,23.2,11.3,35.7,31.8c-0.1,0-0.1,0-0.2,0C175.6,45.5,167.1,34.3,148.4,26.5L148.4,26.5z
				"/>
			<path class="st0" d="M184.1,42.8c0.1,0.1,6.2,5.1,2.3,17c-0.2-0.2-0.3-0.2-0.4-0.4C187.4,54.5,188.7,49.9,184.1,42.8L184.1,42.8z
				"/>
			<path class="st0" d="M146.9,26.1c2,0.6,4.7,3.2,4.9,3.5c2,2.9,2.1,3.3,2.3,6.8c-0.1-0.1-0.3-0.2-0.4-0.3
				C153.3,31,152.5,29.4,146.9,26.1L146.9,26.1z"/>
			<path class="st0" d="M133.2,25.1L133.2,25.1c5.4,2.8,9.7,5.2,18.2,10.8c0,0.1-0.1,0.1-0.1,0.2C143.5,30.9,139.6,28.5,133.2,25.1
				C133.2,25.1,133.2,25.1,133.2,25.1L133.2,25.1z"/>
			<path class="st0" d="M168.2,123.6c0.2,0,0.3,0,0.6-0.1c0.8,12.4,1.2,21,0.3,35.1c-0.1,0-0.3,0-0.4,0
				C169.1,146.2,169.3,138.7,168.2,123.6L168.2,123.6L168.2,123.6z"/>
			<path class="st0" d="M127.2,22.5c0,0-0.1,0-0.1,0c1.1,0.1,5.4,0.4,16.8,2.6c0.1,0.1,0.3,0.1,0.4,0.1
				C132.8,23,128.3,22.6,127.2,22.5L127.2,22.5L127.2,22.5z"/>
			<path class="st0" d="M127.6,22.6L127.6,22.6c1,0.3,2.3,0.8,3.2,1.2l0,0C129.8,23.4,128.6,22.8,127.6,22.6L127.6,22.6L127.6,22.6z
				"/>
			<path class="st0" d="M132.8,24.5c-0.1,0-0.1-0.1-0.2-0.1c6.6,0.5,8.3,0.6,11.9,0.9c0.1,0.1,0.3,0.1,0.5,0.1
				C141.6,25.2,139.6,25,132.8,24.5C132.8,24.5,132.8,24.5,132.8,24.5L132.8,24.5z"/>
			<path class="st0" d="M156.2,39.2c0-0.1,0-0.1,0.1-0.2c11.4,7.7,16.4,11.4,26.6,19.7c0,0.1-0.1,0.2-0.1,0.3
				C172.5,50.6,167.5,46.9,156.2,39.2C156.2,39.3,156.2,39.3,156.2,39.2L156.2,39.2z"/>
			<path class="st0" d="M153.7,39.1c0.1,0.1,0.2,0.1,0.3,0.2c-0.1,4.7-0.3,11.1-10.2,26.1c-0.2-0.1-0.3-0.2-0.5-0.3
				C147.8,58,153.9,48.4,153.7,39.1L153.7,39.1z"/>
			<path class="st0" d="M196.1,114.1c0,0.3,0.1,0.4,0.1,0.7c-9.4,1.9-12.3,2.4-24.5,4.5c0-0.3,0-0.4-0.1-0.7
				C183.8,116.5,186.8,116,196.1,114.1L196.1,114.1z"/>
			<path class="st0" d="M143.4,70.8c0.1-0.1,0.3-0.1,0.4-0.2c7.7,13.7,15.1,26.7,23,45c-0.1,0.1-0.3,0.1-0.4,0.2
				C158.7,99.2,155.9,93.1,143.4,70.8C143.4,70.8,143.4,70.8,143.4,70.8L143.4,70.8z"/>
			<path class="st0" d="M183.5,61.4c0.1,0.1,0.2,0.3,0.2,0.4c-3.6,0.8-11.1,2.4-38.6,5.8c0-0.1-0.1-0.3-0.1-0.4
				C180.3,62,180.3,62,183.5,61.4L183.5,61.4z"/>
			<path class="st0" d="M185.6,63.7c0.1,0.1,0.2,0.1,0.2,0.1c0.7,13-1.6,26.4-15.5,52.4c-0.1-0.1-0.4-0.3-0.5-0.4
				C178.2,99.8,186.4,82.5,185.6,63.7L185.6,63.7z"/>
			<path class="st0" d="M138.4,192c0.1,0,0.2-0.1,0.5-0.1c1.4,7.4,3.6,18.5,0.8,26.7c-0.1,0-0.2,0.1-0.3,0.1
				C140.5,214.2,142,208.1,138.4,192C138.4,192,138.4,192,138.4,192L138.4,192z"/>
			<path class="st0" d="M165.5,164.7c0.1,0.2,0.2,0.3,0.3,0.4c-9.3,8.4-10.5,9.4-25.2,22c-0.1-0.1-0.2-0.2-0.3-0.3
				C148.8,179.4,157.3,172.2,165.5,164.7L165.5,164.7z"/>
			<path class="st0" d="M140.9,190c0-0.1,0.1-0.2,0.1-0.4c9.9,2.4,28.3,6.9,37.8,12c-0.1,0.1-0.2,0.2-0.3,0.3
				C171.1,198.7,164.2,195.7,140.9,190C140.9,190,140.9,190,140.9,190L140.9,190z"/>
			<path class="st0" d="M139.9,220.5c0.1-0.1,0.1-0.1,0.2-0.2c3.3,1.5,4.4,2.1,5,3.4c-0.1,0.1-0.3,0.1-0.4,0.2
				C144.1,222.8,143.4,222.2,139.9,220.5C139.8,220.5,139.9,220.5,139.9,220.5L139.9,220.5z"/>
			<path class="st0" d="M177.2,203.4c0,0.1-1.4,1.8-36.5,16c0-0.1,0-0.1,0.1-0.2C168.2,207.8,168.2,207.8,177.2,203.4L177.2,203.4z"
				/>
			<path class="st0" d="M197.5,178.8c0.1,0,0.1,0.1,0.2,0.1c-5,8-7.5,12.1-15.5,21c-0.1,0-0.1-0.1-0.2-0.1
				C188.4,192.5,191.3,189.1,197.5,178.8L197.5,178.8z"/>
			<path class="st0" d="M170.1,165.2c0.1-0.1,0.2-0.2,0.4-0.4c8.2,13.7,12.2,23.5,9.9,35.5c-0.1,0.1-0.2,0.1-0.3,0.2
				C181.2,191.6,181.2,183.4,170.1,165.2C170,165.2,170.1,165.2,170.1,165.2L170.1,165.2z"/>
			<path class="st0" d="M156.6,26.9c13.1,3.9,21.9,10.7,24.8,13c-0.1,0-0.1-0.1-0.1-0.1c0,0-0.1-0.1-0.1-0.1
				c-1.6-0.8-3.3-2.4-4.7-3.5C173.4,34,167.5,30.6,156.6,26.9L156.6,26.9z"/>
			<path class="st0" d="M148.4,26.2c-0.1,0-0.2-0.1-0.2-0.1c13.1,4.1,20.4,7.2,32.4,13.8c0.1,0.1,0.2,0.2,0.3,0.3
				C171.1,34.9,163.6,31,148.4,26.2C148.4,26.3,148.4,26.2,148.4,26.2L148.4,26.2z"/>
			<path class="st0" d="M188.2,63.8c0-0.1,0.1-0.2,0.1-0.3c8.3,8.1,13.8,13.6,22,24.9c0,0.1-0.1,0.2-0.1,0.3
				C203.6,80.1,199.6,74.9,188.2,63.8C188.2,63.9,188.2,63.8,188.2,63.8L188.2,63.8z"/>
			<path class="st0" d="M187,64.3c0.1,0,0.2,0,0.3,0c3.8,8,10,21.4,11.7,45.6c-0.1,0-0.2,0-0.3,0C197,95.5,195.4,81.9,187,64.3
				L187,64.3z"/>
			<path class="st0" d="M197.2,117c0.1,0.1,0.3,0.3,0.4,0.3c-4.5,9.8-9.6,20.8-26.5,42.1c-0.1-0.1-0.3-0.3-0.4-0.3
				C184,142,190.7,131.4,197.2,117L197.2,117z"/>
			<path class="st0" d="M211.4,150c0.1,0,0.1,0.1,0.2,0.1c-3.3,9-4.8,13.2-10,22.2c-0.1-0.1-0.2-0.1-0.3-0.1
				C205.7,163.9,208.2,159.3,211.4,150L211.4,150z"/>
			<path class="st0" d="M171.4,163.6c0.1-0.2,0.2-0.4,0.2-0.5c12.1,4.3,18.5,6.8,26.6,11.3c-0.1,0.2-0.2,0.3-0.3,0.5
				C192.5,172,187.9,169.4,171.4,163.6C171.4,163.6,171.4,163.6,171.4,163.6L171.4,163.6z"/>
			<path class="st0" d="M210.6,147c0,0.1,0,0.3,0,0.5c-7.2,3.5-15.1,6.9-38.7,14.2c0-0.1,0-0.3,0-0.5
				C196.4,153.1,199.5,152.1,210.6,147L210.6,147z"/>
			<path class="st0" d="M211.3,93.7c0.1,0.2,0.2,0.3,0.3,0.5c-3,6.4-4.1,8.9-10.6,17.5c-0.1-0.3-0.2-0.3-0.3-0.5
				C205.9,104.2,207.8,101.7,211.3,93.7L211.3,93.7z"/>
			<path class="st0" d="M200.7,117.3c0.1-0.1,0.2-0.2,0.3-0.4c4.1,7.4,8.2,15.1,11.2,26.1c-0.1,0.2-0.2,0.2-0.3,0.4
				C209.5,136.1,207.2,128.7,200.7,117.3C200.6,117.3,200.7,117.3,200.7,117.3L200.7,117.3z"/>
			<path class="st0" d="M176.9,204.7c0,0,0.1,0.1,0.1,0.1c-7,5.7-15.7,12.8-29.4,18.4C155.3,219.6,164,215.7,176.9,204.7
				L176.9,204.7z"/>
			<path class="st0" d="M213.1,69.3c7.2,12.1,8.6,15.3,12.8,28.6C221.5,84.3,220.1,81.1,213.1,69.3L213.1,69.3z"/>
			<path class="st0" d="M201.7,195.2c-0.1,0.2-0.3,0.3-0.5,0.5c-1.6,1.3-4.1,3.3-19.9,6.6c0.1-0.1,0.1-0.3,0.4-0.4
				c1-0.4,2.6-0.5,3.6-0.8C189.4,200.1,199.1,197.8,201.7,195.2L201.7,195.2z"/>
			<path class="st0" d="M191,205.1c-0.3,0.2-0.6,0.5-0.9,0.7c-6.8,4.9-9.9,7.1-19.7,11.8c4-2.2,8.1-4.1,11.9-6.4
				C185.1,209.5,188.5,207,191,205.1L191,205.1z"/>
			<path class="st0" d="M179.5,203.9c0.1-0.1,0.3-0.2,0.4-0.3c-0.5,3.9-1.1,8.6-10.6,14.3c-0.2,0.1-0.3,0.2-0.5,0.2
				C173.2,215.3,179.1,211.6,179.5,203.9C179.5,203.9,179.5,203.9,179.5,203.9L179.5,203.9z"/>
			<path class="st0" d="M186.2,43.5c-0.1-0.1-0.1-0.2-0.2-0.2c6.9,4.7,15.4,10.5,23.1,20.4c0.1,0.1,0.1,0.2,0.2,0.3
				C204.5,58.3,199,51.9,186.2,43.5C186.2,43.5,186.2,43.5,186.2,43.5L186.2,43.5z"/>
			<path class="st0" d="M185.9,43.8c0.2,0.1,18.6,13.5,25.8,44.3c-0.1,0-0.1-0.1-0.2-0.1C208.2,76.3,203.8,60.1,185.9,43.8
				L185.9,43.8z"/>
			<path class="st0" d="M211.8,67.5c3.1,4.5,5.9,12,1.5,22.5c-0.1-0.3-0.2-0.3-0.3-0.5C215,84,217.5,77.2,211.8,67.5L211.8,67.5z"/>
			<path class="st0" d="M147.4,24.5c0.3,0.1,0.5,0.1,0.8,0.2l3.5,0.8C151.2,25.4,151.2,25.4,147.4,24.5L147.4,24.5z"/>
			<path class="st0" d="M133,22.7c0.2,0,0.5,0,0.7,0c7.1,0.5,10.6,1.3,12.1,2.6c-0.2-0.1-0.3-0.1-0.5-0.1c-0.2-0.1-0.4-0.3-0.6-0.4
				c-0.1-0.1-1.2-0.6-3.2-1C138.3,23,135,22.8,133,22.7L133,22.7z"/>
			<path class="st0" d="M146.6,25.5c-0.1-0.1-0.3-0.1-0.5-0.1c3.8,0.2,5.5,0.3,7,0.5c0.2,0.1,0.4,0.1,0.6,0.2
				C152.3,25.9,150.9,25.8,146.6,25.5C146.6,25.6,146.6,25.6,146.6,25.5L146.6,25.5z"/>
			<path class="st0" d="M227.5,105.5c1.6,10.9,4,27.3-3.7,50.9C227.2,144.3,231.6,129.2,227.5,105.5L227.5,105.5z"/>
			<path class="st0" d="M214.3,147.8c0.1-0.2,0.1-0.4,0.2-0.5c3.7,3.5,6.7,6.2,7.9,11.3c-0.1,0.2-0.2,0.4-0.2,0.6
				C221.1,155.7,220.3,153.2,214.3,147.8C214.2,147.8,214.2,147.8,214.3,147.8L214.3,147.8z"/>
			<path class="st0" d="M145,224.3c0.1-0.1,0.3-0.1,0.4-0.1c0.7,0.5,1.8,1.4-3.6,2.2c-0.4,0.1-0.9,0.1-1.3,0.2
				c-0.2,0-0.5,0.1-0.7,0.1C144,226.2,146.5,225.5,145,224.3C144.9,224.4,144.9,224.4,145,224.3C144.9,224.4,144.9,224.3,145,224.3
				L145,224.3z"/>
			<path class="st0" d="M165.6,219.8c0.1-0.1,0.3-0.1,0.5-0.2c-5.1,2.2-5.3,2.3-9.4,3.5l-0.8,0.2
				C161.1,221.7,161.8,221.4,165.6,219.8C165.5,219.8,165.5,219.8,165.6,219.8L165.6,219.8z"/>
			<path class="st0" d="M166.6,219.1c0,0-4.3,1.8-20.6,4.9c0.1-0.1,0.3-0.1,0.4-0.2C153.1,222.2,160,221.1,166.6,219.1L166.6,219.1z
				"/>
			<path class="st0" d="M213,95.4c0.1,0,0.2,0,0.2,0.1c3,15.7,3.9,26.8,0.5,46.9c-0.1,0-0.2,0-0.3-0.1
				C216.1,124.7,216.6,114.2,213,95.4L213,95.4z"/>
			<path class="st0" d="M214.2,92.7c-0.1-0.2-0.1-0.5-0.1-0.5c6.9,3.3,9.3,4.8,12.1,8.2c0.1,0.2,0.1,0.4,0.1,0.6
				C223.8,98,222.1,96.5,214.2,92.7C214.2,92.8,214.2,92.8,214.2,92.7L214.2,92.7z"/>
			<path class="st0" d="M227,104c0.1,0.2,4.2,16.3-12.3,39.9c0-0.1-0.1-0.3-0.1-0.4C220.2,134.8,228.7,121.9,227,104L227,104z"/>
			<path class="st0" d="M28.8,95.9c-0.5,1.6-1.3,4.9-1.7,6.6C27.6,100.3,28.2,98.1,28.8,95.9L28.8,95.9z"/>
			<path class="st0" d="M116.7,227c-0.1,0-0.1,0-0.2,0c2,0.2,4.7,0.4,8.2,0.5c-0.1,0-0.1,0-0.2,0C121.9,227.4,119.3,227.2,116.7,227
				L116.7,227z"/>
			<path class="st0" d="M45.8,187.3C45.7,187.3,45.7,187.3,45.8,187.3c0.1,0.1,4.9,5.8,4.9,5.9c0,0,0,0-0.1-0.1
				C48.9,191.3,47.3,189.3,45.8,187.3L45.8,187.3z"/>
			<path class="st0" d="M127.1,22.5c-1.8,0-3.3,0.1-4.2,0.1C124.3,22.5,125.7,22.5,127.1,22.5L127.1,22.5z"/>
			<path class="st0" d="M93,28.7c-1.8,0.7-3.3,1.3-3.6,1.6l0,0c0.5-0.1,6.9-2.6,7.1-2.7c0,0,0,0-0.1,0C96,27.6,94.6,28.1,93,28.7
				L93,28.7z"/>
			<path class="st0" d="M53.8,56c1.4-1.6,2.8-2.8,3.3-2.8c0.9,0.2-2.8,4.4-4.3,5.4c-0.6,0.4-0.9,0.4-0.9,0
				C52.1,58.2,52.8,57.2,53.8,56L53.8,56z"/>
			<path class="st0" d="M79,213.3c-1.7-1.1-2.3-1.8-2-1.8c0,0,0.1,0,0.1,0c1.1,0.1,6.6,3.6,6.2,3.9C83.1,215.5,81.2,214.7,79,213.3
				L79,213.3z"/>
			<path class="st0" d="M44.6,104c0.3-1.8,1.4-3.7,2.9-3.8c2.4,0,2.2,5.1,0.2,7.1c-1.5,1.4-3.3,0.7-3.3-2.1
				C44.5,104.8,44.5,104.4,44.6,104L44.6,104z"/>
			<path class="st0" d="M52.9,152.2c-0.5-2.6,0.6-3.8,1.8-3.8c3.3,0.2,4.3,5.8,2.7,7.2C56.1,156.7,53.6,155.6,52.9,152.2L52.9,152.2
				z"/>
			<path class="st0" d="M123,227.3c-1.6-0.1-2.7-0.3-2.7-0.3c1.9,0.1,3.8,0.4,5.8,0.4C125.8,227.5,124.6,227.5,123,227.3L123,227.3z
				"/>
			<path class="st0" d="M71.1,191c-1-1.7-0.9-3,0.5-3c2.8,0.2,5.4,4.5,4.2,5.7C74.9,194.4,72.6,193.5,71.1,191L71.1,191z"/>
			<path class="st0" d="M75.9,53.1c0.9-1.2,2.3-2.6,3.9-2.7c1.8,0,0.8,2.4-0.8,4c-1.8,1.8-3.8,1.9-3.8,0.6
				C75.1,54.4,75.6,53.5,75.9,53.1L75.9,53.1z"/>
			<path class="st0" d="M106.6,27.8c1.2-0.7,2.6-1.2,3.2-1.2c0.1,0,0.4,0,0,0.3c-1.2,1-4.8,2.7-4.7,2
				C105.1,28.8,105.7,28.4,106.6,27.8L106.6,27.8z"/>
			<path class="st0" d="M115.4,225.1c-1.1-0.5-1.5-0.8-1.3-0.9c0,0,0.1,0,0.1,0c0.9,0,4,1.4,4,1.7C118,226,116.5,225.6,115.4,225.1
				L115.4,225.1z"/>
			<path class="st0" d="M93,115.7c0.1-2.4,1.6-3.9,3.9-4c4.1,0,4.7,5,2.4,7.1C97.1,120.8,92.8,119.8,93,115.7L93,115.7z"/>
			<path class="st0" d="M107,203.5c-0.5-1.4,0.2-2.4,1.7-2.5c2.8,0,4.2,3.2,3,4.5C110.6,206.5,107.8,205.9,107,203.5L107,203.5z"/>
			<path class="st0" d="M100.7,157.1c-0.2-2.6,1.6-3.8,3.4-3.8c4,0.1,5.1,4.6,3.1,6.6C105.1,161.8,101,160.5,100.7,157.1
				L100.7,157.1z"/>
			<path class="st0" d="M117.1,43.4c0.1-0.5,0.7-2,2.8-2.2c2.4,0,2.7,2.6,1.4,3.9c-1.4,1.4-4.3,1-4.3-1C117,44,117,43.7,117.1,43.4
				L117.1,43.4z"/>
			<path class="st0" d="M134.8,188.8c0.2-1.3,1.2-2.7,3.5-2.8c3.5,0.1,3.4,3.6,1.8,5.1c-2,1.8-5.5,0.8-5.2-2.1
				C134.8,189,134.8,188.9,134.8,188.8L134.8,188.8z"/>
			<path class="st0" d="M127.1,22.5c0.3,0,0.5,0,0.5,0.1l0,0c0,0-0.1,0-0.1,0C127.2,22.5,127.2,22.5,127.1,22.5L127.1,22.5z"/>
			<path class="st0" d="M128,227.2c0.3-0.2,0.7-0.4,1-0.4c0.2,0,0.1,0.1,0.1,0.1c-0.3,0.3-1.3,0.5-1.5,0.5l0,0
				C127.8,227.4,127.9,227.3,128,227.2L128,227.2z"/>
			<path class="st0" d="M138.5,67.4c0-1.3,0.8-2.7,3-2.8c3.6,0.1,4.7,4,3,5.6C142.7,71.9,138.6,70.8,138.5,67.4L138.5,67.4z"/>
			<path class="st0" d="M131.1,24.3c-0.3-0.3-0.6-0.6-0.2-0.6c0.8,0,2.7,1.1,2.2,1.4C133,25.3,132,25.2,131.1,24.3L131.1,24.3z"/>
			<path class="st0" d="M137.6,219.9c0.7-1,1.8-1.4,2.5-1.4c1,0,1,0.9,0,1.9c-1.2,1.2-2.9,1.5-2.9,0.5
				C137.2,220.7,137.3,220.3,137.6,219.9L137.6,219.9z"/>
			<path class="st0" d="M164.5,119.4c0-2.4,1.4-4,3.5-4c4.1,0.1,4.7,5.5,2.4,7.4C168.4,124.5,164.5,123.5,164.5,119.4L164.5,119.4z"
				/>
			<path class="st0" d="M165.1,162.3c0.5-2.9,2.7-3.7,3.9-3.7c3.7,0.1,3.3,4.5,1.4,6.2c-2,1.9-5.4,1.2-5.4-1.8
				C165.1,162.7,165.1,162.4,165.1,162.3L165.1,162.3z"/>
			<path class="st0" d="M151.8,37.3c-0.3-0.4-1-1.7,0.3-1.7c2.2,0.1,4.9,3.1,4,3.9C155.4,40,153.2,39.3,151.8,37.3L151.8,37.3z"/>
			<path class="st0" d="M144.2,224.1c1.3-0.5,2.6-1,3.3-1c0.1,0,0.2,0,0.1,0.1c-0.5,0.5-4.9,2-5.4,1.9c0,0,0,0,0,0
				C142.2,225,142.3,224.9,144.2,224.1L144.2,224.1z"/>
			<path class="st0" d="M196,113.4c0-2.1,0.9-3.5,2.4-3.5c3,0,4.1,5.6,2.1,7.4C199,118.9,196.1,117.5,196,113.4L196,113.4z"/>
			<path class="st0" d="M183.2,60.9c-0.9-1.8-0.4-2.6,0.5-2.6c2.2,0,5.6,4.6,4.3,5.8C187.2,64.9,184.7,63.8,183.2,60.9L183.2,60.9z"
				/>
			<path class="st0" d="M145.1,25.5c-1.8-0.6-2.2-0.7-2.4-0.9l0,0c0.8,0,5.9,1.4,6,1.9C148.4,26.6,146.6,26,145.1,25.5L145.1,25.5z"
				/>
			<path class="st0" d="M178.1,202.3c1.3-1.5,2.8-2.5,3.8-2.6c1.1,0,0.6,1.4-1.2,3.1c-1.9,1.9-3.9,2.5-3.9,1.6
				C176.8,204,177.3,203.3,178.1,202.3L178.1,202.3z"/>
			<path class="st0" d="M197.5,175.5c0.9-2,2.3-3.3,3.5-3.3c2.1,0,0.7,4-1.2,5.8c-1.5,1.4-2.9,1.3-2.9-0.3
				C196.9,177.2,197.1,176.5,197.5,175.5L197.5,175.5z"/>
			<path class="st0" d="M210.8,145.8c0.4-1.6,1.2-3.4,2.6-3.5c2.2,0.1,1.7,5.4-0.2,7.3c-1,1-2.6,0.8-2.6-1.9
				C210.6,147.5,210.6,146.8,210.8,145.8L210.8,145.8z"/>
			<path class="st0" d="M210.3,91.2c-0.4-1.5-0.4-3.1,0.8-3.2c2,0,4.3,5.7,2.9,7.2C213.1,96,211.2,94.7,210.3,91.2L210.3,91.2z"/>
			<path class="st0" d="M182.3,41.4c-1.1-0.9-2.4-1.9-1.9-2c1.1,0.1,6.5,4,6,4.5C186.3,44.1,185.3,43.8,182.3,41.4L182.3,41.4z"/>
			<path class="st0" d="M167.4,218.7c2.2-1,3.3-1.5,3.6-1.5c-0.2,0.5-6.4,3.1-7,3.1C164,220.3,164,220.3,167.4,218.7L167.4,218.7z"
				/>
			<path class="st0" d="M221.8,159.9c0.8-2.2,1.5-3.5,1.8-3.6c0.7,0.1-1.7,6.8-2.6,7.4c-0.3,0.1-0.3-0.4,0-1.4
				C221.3,161.5,221.6,160.6,221.8,159.9L221.8,159.9z"/>
			<path class="st0" d="M153.5,26c-1.2-0.3-2.5-0.6-3.7-1c1.6,0.3,6.3,1.6,7.6,2.1c-0.1,0-0.1,0-0.5-0.1
				C155.2,26.5,154.6,26.3,153.5,26L153.5,26z"/>
			<path class="st0" d="M226.4,101.6c-0.4-1.6-0.8-3.6-0.7-3.8c0.3,0.3,2,7.1,1.8,7.7C227.4,105.5,226.8,103,226.4,101.6
				L226.4,101.6z"/>
			<path class="st0" d="M210.6,65.8c-0.7-0.9-1.4-1.8-2-2.8l0,0l1.1,1.5l3.3,4.8C212.2,68.2,211.5,67,210.6,65.8L210.6,65.8z"/>
		</g>
		<g>
			<path class="st1" d="M163.9,221.2c-0.1,0.1-0.2,0.1-0.3,0.1c7.8-3.1,11.1-4.4,19.4-9.5c0.3-0.2,0.5-0.3,0.8-0.5
				C176.9,215.5,174.3,217.1,163.9,221.2C164,221.2,163.9,221.2,163.9,221.2L163.9,221.2z"/>
			<path class="st1" d="M190.3,206.7c0.2-0.2,0.4-0.3,0.6-0.5c4.5-3.9,4.6-4,6.6-6.4c-0.1,0.1-0.3,0.3-0.4,0.4
				c-0.9,0.9-2,2.2-2.9,3.1C193.2,204.4,191.6,205.7,190.3,206.7L190.3,206.7z"/>
			<path class="st1" d="M164.6,220.9c12.4-5.6,18.7-9,31.2-19.7l0-0.1C185.2,210,179.4,214.3,164.6,220.9L164.6,220.9L164.6,220.9z"
				/>
			<path class="st1" d="M200.6,52.5c-0.2-0.2-0.4-0.4-0.5-0.6c-0.1-0.1-0.3-0.3-0.5-0.5c-7-6.4-20.1-18.4-44.1-25.6
				C172,32.1,185,36.9,200.6,52.5L200.6,52.5z"/>
			<path class="st1" d="M206.1,58.5c-0.1-0.2-0.3-0.4-0.5-0.5c-0.8-0.8-1.9-1.9-2.8-2.7c0.1,0.2,0.3,0.3,0.4,0.5
				C204.1,56.6,205.3,57.6,206.1,58.5L206.1,58.5z"/>
			<path class="st1" d="M223,100.3c0.1,0.1,0.1,0.2,0.2,0.3c-0.6-8.6-1.3-20.4-11.7-35.2c-0.2-0.3-0.4-0.6-0.7-0.9
				C215.8,72.1,222.6,82.4,223,100.3C223,100.3,223,100.3,223,100.3L223,100.3z"/>
			<path class="st1" d="M155.6,29.2c0.1,0.1,0.3,0.1,0.4,0.2c0.4-1.1,0.5-1.4-0.2-2.3c-0.5-0.7-1.8-1.3-2.7-1.8
				c-0.2-0.1-0.4-0.1-0.6-0.2c1.5,0.7,2.3,1.1,2.9,1.9C156,27.9,155.8,28.5,155.6,29.2C155.5,29.2,155.6,29.2,155.6,29.2L155.6,29.2
				z"/>
			<path class="st1" d="M199.1,51.9c-10.4-9.6-21.6-18.7-43.3-25.9C169.6,30.9,182.4,36.2,199.1,51.9L199.1,51.9z"/>
			<path class="st1" d="M200.1,53.2c-0.1-0.1-9.8-10-42.3-22.7c1.3,1,3.6,1.5,5.2,2.2C185,41.6,195.6,49.7,200.1,53.2L200.1,53.2z"
				/>
			<path class="st1" d="M162.9,221.4c0.1,0,8.7-3.3,14.4-10.6c-0.2,0.1-0.3,0.2-0.5,0.3c-0.9,0.7-1.8,2-2.6,2.9
				C174.1,214.1,170.8,217.7,162.9,221.4L162.9,221.4z"/>
			<path class="st1" d="M201.4,195.6c14.1-15.3,20.5-26.5,26-46c0.2-0.8,0.4-1.5,0.5-2.3C225.1,158,220.4,175.9,201.4,195.6
				C201.4,195.6,201.4,195.6,201.4,195.6L201.4,195.6z"/>
			<path class="st1" d="M230.4,122.4c0-0.3,0-0.5,0-0.8c-0.6-4.9-1.1-9.2-5.8-16.2c0,0.2-0.1,0.4,0,0.6c0.5,1.3,1.7,2.8,2.4,3.9
				C227,110.1,230.1,115.3,230.4,122.4L230.4,122.4z"/>
			<path class="st1" d="M215.6,136.2c0.1,0.1,0.1,0.2,0.2,0.3c3.3-8.3,6.3-16.1,7.3-29.2c-0.1-0.1-0.1-0.2-0.3-0.4
				C221.9,115.1,221.1,122.9,215.6,136.2C215.6,136.1,215.6,136.2,215.6,136.2L215.6,136.2z"/>
			<path class="st1" d="M216.2,138.6c0,0.3,0,0.5,0,0.6c8.9-4.1,13.5-6.9,14.2-11.5c0-0.2,0-0.5,0-0.7
				C229.7,130.4,228.2,133.2,216.2,138.6C216.2,138.6,216.2,138.6,216.2,138.6L216.2,138.6z"/>
			<path class="st1" d="M139.3,226.9c6.6-1.7,18.7-4.7,35.8-15.4l0.1-0.2C167.6,215.8,155,223.4,139.3,226.9L139.3,226.9
				L139.3,226.9z"/>
			<path class="st1" d="M197.8,73.2c0.1,0.1,0.2,0.3,0.3,0.4c5.1-6.1,7.3-10.7,4.6-17.6c-0.1-0.1-0.3-0.3-0.5-0.5
				C204.3,61.3,204.1,65.4,197.8,73.2C197.7,73.2,197.8,73.2,197.8,73.2L197.8,73.2z"/>
			<path class="st1" d="M222.5,99.8c0.1,0,0.1,0.1,0.2,0.1c-1.9-10.5-4.6-24.8-18.4-42.5l-0.2-0.1C210.3,65.9,218.9,77.5,222.5,99.8
				C222.5,99.8,222.5,99.8,222.5,99.8L222.5,99.8z"/>
			<path class="st1" d="M221.5,101.5c0-0.9-6.1-10.9-22.3-24.6c0,0.1,0,0.3,0,0.3C207.6,84.7,214.8,91.2,221.5,101.5L221.5,101.5z"
				/>
			<path class="st1" d="M180.5,208.3c-0.1,0.1-0.2,0.2-0.3,0.3c4.9-2.2,10.5-4.8,16.5-8.8c0.1-0.1,0.3-0.3,0.4-0.4
				C192.7,202.1,189.3,204.3,180.5,208.3C180.6,208.3,180.5,208.3,180.5,208.3L180.5,208.3z"/>
			<path class="st1" d="M200.6,196c0.2-0.1,18.1-16.5,14.3-52.9c-0.1,0.1-0.1,0.1-0.2,0.2C215.8,160.6,215.6,176.4,200.6,196
				L200.6,196z"/>
			<path class="st1" d="M199.1,197.4c0.1-0.1,7.1-7.1-5.5-20.8c-0.2,0.2-0.2,0.3-0.4,0.5C198.4,183.1,202.8,189.1,199.1,197.4
				L199.1,197.4z"/>
			<path class="st1" d="M127.7,21.7c0.5,0.1,1.4,0,1.4,0c-0.1,0-0.1,0-0.2,0h-0.7c0.1,0,0.2,0,0.3,0C128.2,21.7,128,21.7,127.7,21.7
				C127.7,21.7,127.7,21.7,127.7,21.7L127.7,21.7z"/>
			<path class="st1" d="M151.3,24.8c-2.4-0.7-14.4-2.4-23.4-3.1C148.9,24.4,148.9,24.4,151.3,24.8L151.3,24.8z"/>
			<path class="st1" d="M149.9,24.4c0.1,0,0.3,0.1,0.4,0.1c-5.7-1.3-8.1-1.9-16.6-2.6l-0.9-0.1C140.2,22.4,142.6,22.6,149.9,24.4
				C149.8,24.4,149.9,24.4,149.9,24.4L149.9,24.4z"/>
			<path class="st1" d="M134.2,228.1c0.3,0,0.7-0.1,1-0.1c10.9-1.2,13.8-1.8,23.3-4.8C151.5,225.4,145.4,227.3,134.2,228.1
				L134.2,228.1z"/>
			<path class="st1" d="M138.1,227.2c-0.1,0-0.3,0.1-0.4,0.1c8.5-1.3,14.1-2.5,21.4-4.4c0.2-0.1,0.4-0.1,0.6-0.2
				C154,224.2,148.5,225.6,138.1,227.2C138.1,227.2,138.1,227.2,138.1,227.2L138.1,227.2z"/>
			<path class="st1" d="M154.7,217.9c-0.1,0.1-0.1,0.1-0.2,0.2c9.6-3.1,14.7-5,21.3-7.6c0.1-0.1,0.2-0.2,0.4-0.3
				C168.4,213.2,164.7,214.6,154.7,217.9C154.7,217.9,154.7,217.9,154.7,217.9L154.7,217.9z"/>
			<path class="st1" d="M179.8,207.4c0.1-0.1,9.5-7.7,12-29.1c-0.1,0.1-0.2,0.1-0.3,0.2C190,188,188.7,196.2,179.8,207.4
				L179.8,207.4z"/>
			<path class="st1" d="M138.8,226.9c0.7-0.1,6.7-1.4,12.5-6.8c-0.1,0-0.2,0.1-0.3,0.1c-1.1,0.6-2.2,1.8-3.2,2.6
				C145.5,224.7,140.4,226.4,138.8,226.9L138.8,226.9z"/>
			<path class="st1" d="M127.5,228.4h0.7c6.5-0.1,7.9-0.5,8.5-0.9c-0.2,0-0.3,0.1-0.5,0.1c-0.1,0-0.2,0.1-0.3,0.1
				c-0.4,0.2-2.1,0.4-2.8,0.4C132.5,228.2,130.9,228.3,127.5,228.4L127.5,228.4z"/>
			<path class="st1" d="M127,228.4c2.3-0.1,3.4-0.1,7.9-0.7c0.1,0,0.3-0.1,0.4-0.1C131.3,228.1,129.9,228.3,127,228.4L127,228.4
				L127,228.4z"/>
			<path class="st1" d="M213.9,135.8c0.1,0,0.2-0.1,0.3-0.1c-0.6-11.5-1.5-30.6-15.6-57.4c-0.1,0-0.2,0.1-0.3,0.1
				C205.7,93.3,212.9,110.1,213.9,135.8L213.9,135.8z"/>
			<path class="st1" d="M194.2,172.2c0,0,0.1,0.1,0.1,0.1c5.6-7.1,11.4-14.5,18.4-28.9c-0.1-0.1-0.1-0.2-0.3-0.3
				C207.8,152.2,204.5,158.8,194.2,172.2C194.2,172.2,194.2,172.2,194.2,172.2L194.2,172.2z"/>
			<path class="st1" d="M191.3,172.6c0.1-0.1,0.2-0.1,0.3-0.2c-1.1-6.9-4.1-25-27.8-58.8c-0.1,0.1-0.3,0.3-0.5,0.4
				C175.3,131.8,188.1,152.6,191.3,172.6L191.3,172.6z"/>
			<path class="st1" d="M212.2,138.6c0-0.1,0.1-0.3,0.1-0.5c-10.8-8.7-24.5-16.4-47.6-26.4c0,0.1-0.1,0.3-0.1,0.5
				C184.7,121.5,199.1,128.2,212.2,138.6L212.2,138.6z"/>
			<path class="st1" d="M139.8,68.1c0.2,0,0.4,0,0.6,0l0,0l0,0l0,0l0,0l0,0l0,0l0,0l0,0c-1.5-7.8-6-31.6-10.9-43.1
				c-0.2,0-0.2,0-0.2,0l0,0l0,0l0,0l0,0l0,0l0,0l0,0C130.5,28.2,134.3,38.1,139.8,68.1L139.8,68.1z"/>
			<path class="st1" d="M153.3,29c-0.8-0.6-17.1-6-24.9-7.2C133.1,22.7,138.9,24,153.3,29L153.3,29z"/>
			<path class="st1" d="M154,29.5c-0.4-0.3-0.4-0.3-3.7-1c-6.8-1.5-13.5-2.8-20.3-4.3c0,0,0,0.1,0.1,0.1
				C137.9,26.1,146,27.7,154,29.5L154,29.5z"/>
			<path class="st1" d="M127.4,228.4c4.6-0.5,9.8-1,22.6-8.1l-0.1-0.1C143.3,223.8,135.8,227.9,127.4,228.4L127.4,228.4L127.4,228.4
				z"/>
			<path class="st1" d="M194.6,71.5c0.1,0,0.1,0,0.2-0.1c-8.9-15.5-18.5-28.3-36.5-40.1C170.3,39.8,181.4,48.7,194.6,71.5
				L194.6,71.5z"/>
			<path class="st1" d="M142.7,68.9c0.1,0.1,0.3,0.2,0.3,0.3c11.8-13.2,21.6-27.1,13.7-38.2c-0.1-0.1-0.3-0.1-0.4-0.2
				C161.4,38.7,161,48.2,142.7,68.9C142.7,68.8,142.7,68.8,142.7,68.9L142.7,68.9z"/>
			<path class="st1" d="M164,108c0.1,0.2,0.2,0.3,0.3,0.4c13.8-10.6,24.4-20,31.4-31.3c-0.2-0.2-0.3-0.3-0.4-0.5
				C190.3,84.1,184.2,92.2,164,108C164,107.9,164,107.9,164,108L164,108z"/>
			<path class="st1" d="M194.4,75c-0.1-0.2-0.2-0.4-0.2-0.6c-10.2-0.8-21.7-1.6-50-3.1c0,0.2,0,0.4,0.1,0.6
				C156.5,72.5,177.1,73.6,194.4,75L194.4,75z"/>
			<path class="st1" d="M127,228.4c-0.1,0-0.3,0-0.5,0C126.7,228.4,126.9,228.4,127,228.4L127,228.4z"/>
			<path class="st1" d="M127,228.4L127,228.4c3.1,0,4.5-1,3.9-2.9c-0.1,0-0.1,0.1-0.2,0.1c0.1,0.7,0,1.7-0.5,2.1
				C129.6,228.1,128.6,228.4,127,228.4L127,228.4z"/>
			<path class="st1" d="M131.8,224.3c0,0,0,0.1,0,0.1c6.2-1.6,18.5-5,18.6-5c0.1-0.1,0.2-0.2,0.3-0.3
				C144.3,220.9,138,222.5,131.8,224.3L131.8,224.3L131.8,224.3z"/>
			<path class="st1" d="M189.9,174.3c0.1-0.1,0.2-0.3,0.3-0.4c-9.4-6.5-21-12.2-42.7-21c-0.1,0.1-0.1,0.3-0.2,0.5
				C171.9,164.1,178.5,166.9,189.9,174.3L189.9,174.3z"/>
			<path class="st1" d="M154.8,217c9.7-7.1,21.5-17.3,35.2-38.3c-0.1,0-0.2-0.1-0.3-0.1C183.6,187.7,173.3,203.1,154.8,217
				L154.8,217L154.8,217z"/>
			<path class="st1" d="M152,218c0.1-0.1,0.3-0.2,0.4-0.3c-2.4-4.9-6.3-8.2-17.5-14.9c-0.1,0.2-0.1,0.2-0.3,0.4
				C145.9,210,149.8,213.3,152,218L152,218z"/>
			<path class="st1" d="M135.1,200.4c0,0.1,0.1,0.2,0.1,0.3c35.6-14.4,48.4-20.9,53.8-23.7c0-0.2,0-0.4,0.1-0.5
				C172.7,184.7,165.5,187.7,135.1,200.4C135.1,200.4,135.1,200.4,135.1,200.4L135.1,200.4z"/>
			<path class="st1" d="M137.8,69.2c0.1-0.1,0.2-0.2,0.3-0.3c-18.8-17.9-22.7-21.6-27.2-29.7c-0.1,0.1-0.2,0.1-0.3,0.2
				C115.8,48.6,122.5,55.2,137.8,69.2L137.8,69.2z"/>
			<path class="st1" d="M137.1,71.1c0-0.2,0-0.4,0.1-0.5c-22.6-3.7-33-5.4-49-8.7c-0.1,0.1-0.2,0.4-0.3,0.5
				C104.3,65.8,113.9,67.4,137.1,71.1L137.1,71.1z"/>
			<path class="st1" d="M145.3,148.1c0.1,0.1,0.3,0.1,0.5,0.2c5.7-12,9-19.4,14.4-33.8c-0.3-0.1-0.3-0.1-0.6-0.3
				C155.1,125.7,152.7,132,145.3,148.1C145.2,148,145.2,148.1,145.3,148.1L145.3,148.1z"/>
			<path class="st1" d="M159.1,106.9c0.1-0.1,0.3-0.1,0.4-0.2c-4-8.6-6-12.9-16.8-32.2c-0.1,0.1-0.3,0.1-0.4,0.2
				C156,100.6,156,100.6,159.1,106.9L159.1,106.9z"/>
			<path class="st1" d="M83.6,109.3c0.1,0.1,0.1,0.2,0.1,0.3c17.9-12.2,36.3-23.8,54.2-35.9c-0.1-0.1-0.3-0.3-0.4-0.5
				C119.6,85.2,101.1,96.4,83.6,109.3C83.6,109.2,83.6,109.3,83.6,109.3L83.6,109.3z"/>
			<path class="st1" d="M84.2,111.5c0,0.1,0,0.3,0,0.4c8.9,0.1,8.9,0.1,73.1-1c0-0.2,0-0.5,0-0.7C132.9,110.6,108.6,111,84.2,111.5
				C84.2,111.4,84.2,111.5,84.2,111.5L84.2,111.5z"/>
			<path class="st1" d="M123.9,21.7c-0.2,0-0.3,0-0.5,0c1.4,0,2.9,0,4.3-0.1c-0.1,0-0.1,0-0.1,0C126.3,21.7,125.1,21.7,123.9,21.7
				C123.9,21.7,123.9,21.7,123.9,21.7L123.9,21.7z"/>
			<path class="st1" d="M102.9,220.1c0.1,0.1,0.2,0.1,0.3,0.2c2-4.4,7-8.6,26.8-17.2c-0.1-0.2-0.1-0.2-0.2-0.4
				C114.5,209.4,104.7,214.7,102.9,220.1C102.8,220.1,102.9,220.1,102.9,220.1L102.9,220.1z"/>
			<path class="st1" d="M130.8,223.6c0.1,0,0.1,0,0.2,0c0.7-3,1.8-7.5,1.8-19.3c-0.2,0-0.3,0-0.5,0
				C132.3,209.8,132.2,218.2,130.8,223.6L130.8,223.6z"/>
			<path class="st1" d="M125.3,228.3c-7-0.9-13.8-3.7-19.9-6.3C105.4,222,113.9,226.6,125.3,228.3L125.3,228.3z"/>
			<path class="st1" d="M125.9,228.3c0.1,0,0.1,0,0.2,0c-0.4-0.1-0.9-0.2-1.2-0.5c0.3-0.6,0.5-1,4.5-2.6c0-0.1,0-0.1,0-0.1
				c-1,0.4-2.4,1-3.4,1.5c-0.4,0.2-0.9,0.7-1.2,1C125,228.2,125,228.2,125.9,228.3C125.9,228.3,125.9,228.3,125.9,228.3L125.9,228.3
				z"/>
			<path class="st1" d="M129.4,224.7c0,0,0-0.1,0.1-0.1c-8.4-1.4-16.9-2.4-25.3-3.6c0.3,0.2,0.3,0.2,3.3,0.7
				C114.8,222.7,122.1,223.6,129.4,224.7L129.4,224.7z"/>
			<path class="st1" d="M87.9,58.9c0.1,0.1,0.1,0.1,0.2,0.2c7.6-7.7,11.1-11.2,19.9-19.4c-0.1-0.1-0.1-0.1-0.2-0.2
				C101.2,45.6,95.6,50.9,87.9,58.9C87.9,58.9,87.9,58.9,87.9,58.9L87.9,58.9z"/>
			<path class="st1" d="M129.9,200.5c0.1-0.1,0.1-0.2,0.2-0.3c-20.5-12.1-41.9-22.5-61.9-35.3c0,0.1,0,0.3-0.1,0.3
				c7.1,4.7,8.7,5.8,18.3,11.3C100.9,184.8,115.6,192.4,129.9,200.5L129.9,200.5z"/>
			<path class="st1" d="M132.9,199c0.1,0,0.2,0,0.2,0c4.5-16.3,9.6-40.6,10.1-43.3c-0.3,0-0.3,0-0.6-0.1
				C140.3,167.1,138.8,174.6,132.9,199C132.9,199,132.9,199,132.9,199L132.9,199z"/>
			<path class="st1" d="M140.2,150c0.1-0.2,0.2-0.4,0.3-0.6c-42.1-25.3-42.1-25.3-56.7-35.7c-0.1,0.2-0.2,0.4-0.3,0.6
				C97.4,124.1,97.4,124.1,140.2,150L140.2,150z"/>
			<path class="st1" d="M67.8,162.6c0,0.1,0.1,0.3,0.1,0.4c47.4-7,47.4-7,71.9-10.3c0-0.2-0.1-0.5-0.1-0.7
				C106.9,156.3,87,159,67.8,162.6C67.8,162.5,67.8,162.5,67.8,162.6L67.8,162.6z"/>
			<path class="st1" d="M129.1,23.3c0.1,0,0.1,0,0.1,0.1c0-0.3-0.1-0.7-0.1-1c-0.2-0.2-0.5-0.4-0.7-0.6c0,0-0.1,0-0.1,0
				c0.2,0.2,0.5,0.4,0.7,0.6C129,22.7,129.1,23,129.1,23.3C129.1,23.3,129.1,23.3,129.1,23.3L129.1,23.3z"/>
			<path class="st1" d="M108.5,25.7c-0.1,0.1-0.2,0.1-0.3,0.1c18.9-3.7,18.9-3.7,19.6-4c0,0,0-0.1,0-0.1c0,0-0.1,0-0.1,0
				c0,0,0,0.1,0,0.1C127.4,21.9,127.4,21.9,108.5,25.7C108.6,25.7,108.5,25.7,108.5,25.7L108.5,25.7z"/>
			<path class="st1" d="M112.1,36.2c0,0.1,0.1,0.1,0.1,0.2c10.9-7,13.8-9.2,16.3-11.7c-0.1,0-0.1-0.1-0.1-0.1
				C126,26.8,124.5,28.2,112.1,36.2C112.1,36.2,112.1,36.2,112.1,36.2L112.1,36.2z"/>
			<path class="st1" d="M108.6,36.8c0.1-0.1,0.2-0.2,0.3-0.3c-2.5-3-5.1-6.2-2.5-9.8c-0.5,0.2-2,1.2-1.2,5
				C105.5,32.8,106.7,34.5,108.6,36.8L108.6,36.8z"/>
			<path class="st1" d="M108.1,25.9c-0.1,0.1-0.2,0.1-0.3,0.1c5.2-0.5,20.2-1.8,20.3-1.8c0-0.1,0-0.1-0.1-0.1
				C121.4,24.7,114.8,25.2,108.1,25.9C108.2,25.9,108.1,25.9,108.1,25.9L108.1,25.9z"/>
			<path class="st1" d="M100.5,219.3c-8.1-6.6-23.1-19-33.9-52.3c-0.1,0-0.2,0-0.3,0C71.1,182.2,79.8,204.1,100.5,219.3L100.5,219.3
				z"/>
			<path class="st1" d="M39,128.6c0,0.1,0.1,0.4,0.1,0.5c11.3-6,18.8-9.2,38.2-15.9c-0.1-0.3-0.1-0.3-0.1-0.7
				C58.3,119,49.7,122.6,39,128.6C38.9,128.6,39,128.6,39,128.6L39,128.6z"/>
			<path class="st1" d="M65.4,159.8c0.1,0,0.2,0.1,0.3,0.1c3.1-16.1,5.1-24.1,13.5-44.2c-0.2-0.1-0.4-0.2-0.5-0.3
				C70.1,135.9,67.8,145.3,65.4,159.8C65.4,159.8,65.4,159.8,65.4,159.8L65.4,159.8z"/>
			<path class="st1" d="M80.2,107.8c0.1,0,0.3-0.1,0.4-0.1c0.2-18.8,0.6-26.8,4.3-43c-0.1,0-0.3,0.1-0.5,0.1
				C81.3,78.6,80,87.6,80.2,107.8L80.2,107.8z"/>
			<path class="st1" d="M77.6,109.9c0.1-0.3,0.2-0.3,0.3-0.6C67.3,100.6,58.7,93.1,52,82.5c-0.2,0.2-0.2,0.3-0.4,0.5
				C56.6,90.5,61.3,96.8,77.6,109.9L77.6,109.9z"/>
			<path class="st1" d="M110.1,226.4c0.4,0.1,0.4,0.1,0.5,0.1c-3.3-1.1-5.9-2-7.2-4.8c-0.1-0.1-0.3-0.1-0.5-0.2
				C103.9,223.3,104.6,224.7,110.1,226.4C110,226.4,110,226.4,110.1,226.4L110.1,226.4z"/>
			<path class="st1" d="M100.3,219.6c-11.3-6.6-18.4-10.8-31.5-21.7c0,0.1,0,0.1,0,0.2C75.7,203.8,84.4,211,100.3,219.6L100.3,219.6
				z"/>
			<path class="st1" d="M65,193c0.1,0.1,0.2,0.1,0.3,0.2c-2.1-9.2-2.7-13.8-0.6-26.6c-0.2-0.1-0.3-0.2-0.5-0.3
				C62.6,177.3,62.5,183,65,193C65,193,65,193,65,193L65,193z"/>
			<path class="st1" d="M62.4,161c0-0.1,0.1-0.3,0.1-0.4c-9.6-9.6-16.5-16.5-23.6-28c-0.1,0.2-0.1,0.2-0.2,0.5
				C43.3,140.2,48.2,147.6,62.4,161L62.4,161z"/>
			<path class="st1" d="M108,25.3c0.1-0.1,0.3-0.1,0.4-0.1c2-0.7,4.7-1.8,6.7-2.4c1.8-0.5,4.3-0.7,6.2-0.9
				C113.7,22.5,109.4,24.6,108,25.3L108,25.3z"/>
			<path class="st1" d="M85.7,58.8c0.1,0,0.3-0.1,0.4-0.1c2.1-10,4.8-22.5,18.8-31.4C104.7,27.2,90.1,32.8,85.7,58.8L85.7,58.8z"/>
			<path class="st1" d="M85.3,31.8C85.2,31.9,85,32,84.9,32c5.2-1.6,9.2-2.9,20.1-5.5c0.1-0.1,0.3-0.1,0.4-0.2
				C94.7,28.9,90.7,30.1,85.3,31.8C85.3,31.8,85.3,31.8,85.3,31.8L85.3,31.8z"/>
			<path class="st1" d="M53.4,78.9c0,0.1,0,0.3-0.1,0.4c7-4.3,14.3-8.7,29.2-16c0-0.2,0-0.3,0-0.5C74.3,66.9,64.1,72,53.4,78.9
				C53.4,78.8,53.4,78.9,53.4,78.9L53.4,78.9z"/>
			<path class="st1" d="M83.8,60.2c0.2-0.2,0.2-0.3,0.4-0.5C75.9,49.7,73,42.1,82.4,33.4c-0.1,0-6.7,3.9-6.3,12.2
				C76.4,51.4,81,56.9,83.8,60.2L83.8,60.2z"/>
			<path class="st1" d="M40.1,69.1c1.7-2.4,3.9-5.5,5.7-7.8c0.1-0.1,0.1-0.2,0.2-0.3c-1.6,2.1-3.7,4.8-5.2,7
				C40.6,68.4,40.4,68.7,40.1,69.1L40.1,69.1z"/>
			<path class="st1" d="M47.8,58.7L47.8,58.7c0.1-0.1,0.3-0.3,0.4-0.5c0,0,0-0.1,0-0.1C48.1,58.3,48,58.5,47.8,58.7L47.8,58.7z"/>
			<path class="st1" d="M108.2,226c-10-3.1-25.2-7.8-40.1-27.7c-0.1,0-0.2,0-0.3-0.1C76.3,209.1,86.5,220,108.2,226L108.2,226
				L108.2,226z"/>
			<path class="st1" d="M108.6,226.2c-14.2-4-17.6-4.9-29.7-10.9C79,215.3,88.6,221.4,108.6,226.2L108.6,226.2z"/>
			<path class="st1" d="M27.6,96.7c1.8-4,4.6-7.9,20.8-14.7c0.1-0.3,0.1-0.3,0.2-0.6C36.8,86.5,30,90.3,27.8,96
				C27.7,96.3,27.7,96.5,27.6,96.7L27.6,96.7z"/>
			<path class="st1" d="M37.3,125.9c0.1,0,0.1,0.1,0.2,0.1c1.7-12,3.3-23.4,11.7-41.5c-0.1,0-0.2-0.1-0.3-0.1
				C44.4,94.5,39.3,106.1,37.3,125.9C37.3,125.9,37.3,125.9,37.3,125.9L37.3,125.9z"/>
			<path class="st1" d="M49.4,79.5c0.2-0.3,0.2-0.3,0.4-0.5c-3.7-6-6.2-11.2-2.2-19.2C46.1,61.4,41.8,67.9,49.4,79.5L49.4,79.5z"/>
			<path class="st1" d="M51.1,77.6c0.1-0.1,0.3-0.1,0.4-0.2c2.5-10.6,6.8-28.4,29.2-43.2C80.5,34.3,57.8,45.5,51.1,77.6L51.1,77.6z"
				/>
			<path class="st1" d="M63.5,192.7c-8.9-12.7-21.1-30-25.7-58.5c-0.1,0-0.2,0.1-0.3,0.1C39.6,145.3,43.9,168.2,63.5,192.7
				L63.5,192.7z"/>
			<path class="st1" d="M74.2,212.3c0.1,0.1,0.3,0.1,0.4,0.2c-5.6-5.7-7.1-8.3-8.3-15c-0.2-0.1-0.3-0.2-0.5-0.4
				C67,203.7,68.2,206.5,74.2,212.3C74.2,212.3,74.2,212.3,74.2,212.3L74.2,212.3z"/>
			<path class="st1" d="M30.3,161.5c4.9,10.6,11.6,19,33.1,32.7c-0.1-0.1-0.1-0.3-0.1-0.4c-1.3-1.3-3.6-2.3-5.1-3.3
				c-20.9-13.6-25.8-24.5-28.1-29.8C30.1,161,30.2,161.2,30.3,161.5L30.3,161.5z"/>
			<path class="st1" d="M24.6,111c-0.1,4.1-0.1,9.2,10.6,18c0-0.3,0-0.4,0.1-0.7c-6.2-5.4-11.3-10.5-10.6-18
				C24.7,110.5,24.6,110.8,24.6,111L24.6,111z"/>
			<path class="st1" d="M26.9,150.7c-0.6-4.4-1.3-9.4,8.5-18.8c-0.1-0.3-0.1-0.4-0.1-0.7c-4.6,4.6-10.3,10.3-8.6,18.8
				C26.8,150.2,26.9,150.5,26.9,150.7L26.9,150.7z"/>
			<path class="st1" d="M127,228.4c-0.1,0-0.2,0-0.4,0h0c-0.1,0-0.2,0-0.3,0c-0.1,0-0.1,0-0.2,0c0.1,0,0.3,0,0.4,0
				C126.8,228.4,126.9,228.4,127,228.4L127,228.4z"/>
			<path class="st1" d="M126.3,228.3c-1.4-0.1-5.7-0.3-13.8-1.4C113.5,227.1,121,228.1,126.3,228.3L126.3,228.3z"/>
			<path class="st1" d="M92.8,222.5c3.4,1.1,7.6,2.5,17.7,4.1c-15-3.2-15-3.2-18.4-4.4C92.4,222.4,92.6,222.4,92.8,222.5L92.8,222.5
				z"/>
			<path class="st1" d="M121.7,228.2c-2.4-0.1-6.5-0.4-9.3-1.2c-0.2,0-0.4-0.1-0.6-0.1c1.3,0.4,3.4,0.9,9.2,1.3
				C121.2,228.2,121.4,228.2,121.7,228.2L121.7,228.2z"/>
			<path class="st1" d="M37,175.8c5,8,14.2,22.8,35.8,36.1c-1.6-1.7-4.4-3-6.3-4.3c-3.1-2.1-19.1-13.3-30.2-33.2
				C36.6,174.9,36.8,175.4,37,175.8L37,175.8z"/>
			<path class="st1" d="M83.8,218.9c-3.1-1.5-4.7-2.4-6.8-4.2c-0.2-0.1-0.4-0.2-0.5-0.3c2.2,1.7,3.2,2.6,6.6,4.2
				C83.3,218.7,83.6,218.8,83.8,218.9L83.8,218.9z"/>
			<path class="st1" d="M61.7,205.1c4.1,3.1,6,4.5,12.3,7.8c-0.1-0.1-0.3-0.2-0.5-0.3c-1.2-0.8-2.9-1.6-4.1-2.2
				c-2.4-1.3-5.5-3.5-8.4-5.7C61.4,204.7,61.5,204.9,61.7,205.1L61.7,205.1z"/>
			<path class="st1" d="M124.4,21.7c-0.7,0-1,0-1.2,0.1c1.3-0.1,1.3-0.1,1.9-0.1C124.9,21.7,124.6,21.7,124.4,21.7L124.4,21.7z"/>
			<path class="st1" d="M104.8,24c-8.4,2.1-12.8,3.4-20,7.5c2.8-1.2,5.3-2.9,8.2-4c4.9-1.8,6.2-2.2,12.7-3.7
				C105.4,23.9,105.1,24,104.8,24L104.8,24z"/>
			<path class="st1" d="M86.7,31c-0.1,0-0.1,0.1-0.1,0.1c8.7-3.6,18.7-7.7,33.7-9.1c0.1,0,0.2,0,0.3,0
				C112.1,22.9,102.6,24.1,86.7,31C86.7,31,86.7,31,86.7,31L86.7,31z"/>
			<path class="st1" d="M83.9,31.1c-0.3,0.2-0.8,0.4-1,0.7c-0.1,0.2,0,0.5,0.1,0.6c0.2-0.1,0.4-0.2,0.6-0.3c-0.1-0.2-0.1-0.6,0-0.8
				c0.2-0.3,0.6-0.5,0.9-0.6C84.3,30.9,84.1,31,83.9,31.1L83.9,31.1z"/>
			<path class="st1" d="M52.1,53.9l-2.6,2.9c0.5-0.6,0.5-0.6,3.1-3.5C52.5,53.5,52.3,53.7,52.1,53.9L52.1,53.9z"/>
			<path class="st1" d="M50.6,55.9c0,0.1-0.1,0.1-0.1,0.1c6.6-6.4,14.1-13.7,29.6-21.8c0.1-0.1,0.1-0.1,0.2-0.1
				C72.1,38.5,62,44.2,50.6,55.9C50.7,55.8,50.6,55.9,50.6,55.9L50.6,55.9z"/>
			<path class="st1" d="M201.5,54.7c1.7,1.8,2.8,2.8,3,2.8c0.1-0.5-4.6-5.6-5.4-5.8h0C199,52,199.8,52.9,201.5,54.7L201.5,54.7z"/>
			<path class="st1" d="M198,198.5c-2.4,2.4-2.2,2.6-2.1,2.6c0.7,0,5.9-5.2,5.6-5.6c0,0,0,0,0,0C201.2,195.6,200.5,195.9,198,198.5
				L198,198.5z"/>
			<path class="st1" d="M160.4,222.4c-3.1,1.2-3.1,1.2-3.2,1.2c0.6,0.1,6.8-2.2,7.4-2.7v0C164.3,220.9,164.3,220.9,160.4,222.4
				L160.4,222.4z"/>
			<path class="st1" d="M151.9,25c3.9,1.1,3.9,1.1,4,1.1c-0.3-0.3-6.5-2-7.6-2c0.1,0,0.1,0,1.1,0.3C149.8,24.4,150.8,24.7,151.9,25
				L151.9,25z"/>
			<path class="st1" d="M221.9,104.2c0.7,2.9,1.8,4.1,2.3,3.3c0.9-1.3-0.4-7.7-2-7.8C221.2,99.9,221.4,102.2,221.9,104.2
				L221.9,104.2z"/>
			<path class="st1" d="M176.8,209.5c-1.8,1.5-2,2.1-1.5,2.1c1.3,0.1,6.5-3.9,5.8-4.5c-0.1-0.1-0.1-0.1-0.2-0.1
				C180.1,207.1,178.6,208,176.8,209.5L176.8,209.5z"/>
			<path class="st1" d="M212,140.3c-0.2,3.1,1.3,4.3,2.7,3c1.9-1.7,2.3-7.6-0.1-7.7C213.2,135.7,212.1,137.7,212,140.3L212,140.3z"
				/>
			<path class="st1" d="M194.3,74.9c1.5,3.5,4.2,4.3,4.8,2.8c0.6-1.7-1.6-6.1-4.1-6.2C193.8,71.4,193.5,72.9,194.3,74.9L194.3,74.9z
				"/>
			<path class="st1" d="M189.4,175.5c-1,2.7,0.3,3.9,2.1,3c2.6-1.2,4.2-5.9,2.3-6.6c-0.2-0.1-0.4-0.1-0.5-0.1
				C191.7,171.9,190.1,173.4,189.4,175.5L189.4,175.5z"/>
			<path class="st1" d="M154.6,29.9c2.5,1.5,3.7,1.6,3.7,1.3c-0.1-0.7-4.1-2.9-5.5-3c-0.2,0-0.4,0,0.2,0.5
				C153.3,29,153.9,29.5,154.6,29.9L154.6,29.9z"/>
			<path class="st1" d="M136,227.5c-0.8,0.2-1.6,0.2-2.4,0.5c0.5,0,5.1-0.7,5.7-1.1l0,0C139.3,226.8,139.3,226.8,136,227.5
				L136,227.5z"/>
			<path class="st1" d="M151,218.8c-1.1,0.9-1.4,1.5-0.8,1.6c1.5,0.1,5.4-2.6,4.7-3.3c-0.1-0.1-0.2-0.1-0.4-0.1
				C153.6,217,152.3,217.7,151,218.8L151,218.8z"/>
			<path class="st1" d="M127,228.4c0.2,0,0.3,0,0.5,0l0,0C127.4,228.4,127.2,228.4,127,228.4L127,228.4L127,228.4z"/>
			<path class="st1" d="M157.3,110.5c0.2,4.2,4.6,5.1,6.6,3c1.8-1.9,1.2-6.9-3-7.1C158.6,106.4,157.2,108.1,157.3,110.5L157.3,110.5
				z"/>
			<path class="st1" d="M127.6,21.7c0.2,0,0.4,0.1,0.6,0.1c0.3,0.1,0.5,0.1,0.5,0.1c-0.1-0.1-0.8-0.2-1.7-0.2l0,0
				C127.1,21.6,127.3,21.6,127.6,21.7L127.6,21.7z"/>
			<path class="st1" d="M139.8,151.8c-0.1,4,4.3,4.9,6.6,2.9c2.2-1.9,1.8-6.6-2.1-6.8c-0.1,0-0.2,0-0.3,0
				C140.9,148,139.8,150,139.8,151.8L139.8,151.8z"/>
			<path class="st1" d="M137.1,71.7c0.5,3.5,4.8,4,6.4,2.1c1.4-1.6,0.5-5.6-3.2-5.7l0,0l0,0l0,0l0,0l0,0l0,0l0,0l0,0
				C138.2,68.1,136.9,69.6,137.1,71.7L137.1,71.7z"/>
			<path class="st1" d="M129.4,224.8c-0.3,0.9,0.6,1.2,1.4,0.7c0.9-0.5,1.4-1.6,0.5-1.9c-0.1,0-0.2,0-0.3-0.1
				C130.4,223.6,129.6,224,129.4,224.8L129.4,224.8z"/>
			<path class="st1" d="M128.1,24c0.1,0.6,0.6,0.9,1.2,1l0,0l0,0l0,0l0,0l0,0l0,0l0,0l0,0c0.9,0,0.9-0.7,0.3-1.3
				c-0.1-0.1-0.5-0.4-0.9-0.4C127.9,23.2,128,23.9,128.1,24L128.1,24z"/>
			<path class="st1" d="M129.6,201.8c0,2.6,3.1,3.2,4.8,1.6c1.5-1.5,1.1-4.4-1.8-4.4C130.5,199.1,129.6,200.6,129.6,201.8
				L129.6,201.8z"/>
			<path class="st1" d="M107.7,38.1c-0.7,1.7,0.8,2.2,2.2,1.7c1.9-0.7,3.1-3.3,1.7-3.9c-0.2-0.1-0.5-0.1-0.7-0.1
				C109.4,35.8,108.2,37,107.7,38.1L107.7,38.1z"/>
			<path class="st1" d="M126.6,228.3c0.2,0,0.3,0,0.5,0c-0.7,0-1.1-0.1-1.7-0.1c-0.1,0-0.2,0-0.3,0l0,0
				C125,228.3,125.7,228.3,126.6,228.3L126.6,228.3z"/>
			<path class="st1" d="M77.2,112c-0.2,4,3.6,5,5.7,3.1c2-1.8,2.2-7-1.9-7.3C79.2,107.8,77.3,109.1,77.2,112L77.2,112z"/>
			<path class="st1" d="M82.8,61.8c-1,2.7,1,3.5,2.9,2.7c2.6-1.2,3.8-5.1,1.8-5.8c-0.3-0.1-0.6-0.1-0.7-0.1
				C85.2,58.6,83.5,59.9,82.8,61.8L82.8,61.8z"/>
			<path class="st1" d="M101.9,221c1.8,1.1,3.7,1.6,3.6,1.2c-0.1-0.6-3.5-2.8-4.9-2.9c-0.4,0-0.5,0.3-0.1,0.7
				C100.9,220.3,101.6,220.7,101.9,221L101.9,221z"/>
			<path class="st1" d="M62.6,163.8c1.2,3.3,4.5,4.2,5.4,2c0.8-1.9-0.7-6.2-3.7-6.3C62.1,159.7,61.9,161.8,62.6,163.8L62.6,163.8z"
				/>
			<path class="st1" d="M105.9,26.1c-1.5,0.7-2.1,1.1-1.8,1.2c0.6,0.2,5.4-1.9,5.4-2.3c0,0-0.1,0-0.1,0
				C108.9,25,107.3,25.5,105.9,26.1L105.9,26.1z"/>
			<path class="st1" d="M64.5,195.8c1.9,2.4,4.2,3.3,4.3,2.1c0.2-1.3-2.9-5.2-5-5.3C62.9,192.6,62.9,193.8,64.5,195.8L64.5,195.8z"
				/>
			<path class="st1" d="M48.7,80.9c-1.1,2.8-0.1,4.1,1.5,3.4c2.4-1.1,4.2-6.4,2.4-7c-0.1-0.1-0.3-0.1-0.4-0.1
				C51,77.2,49.6,78.7,48.7,80.9L48.7,80.9z"/>
			<path class="st1" d="M123.4,21.7c-1.8,0.1-3.1,0.2-3.4,0.3c2.3-0.1,4.7-0.3,7-0.3C125.8,21.6,124.6,21.7,123.4,21.7L123.4,21.7z"
				/>
			<path class="st1" d="M111.4,226.8c1.9,0.4,3.6,0.6,3.8,0.6c0,0-6.7-1.4-7-1.4C108.3,226.2,110.4,226.6,111.4,226.8L111.4,226.8z"
				/>
			<path class="st1" d="M35.2,130.2c0.2,3.7,2,4.8,3.1,3.5c1.5-1.7,0.9-7.9-1.3-7.9C35.6,125.9,35.1,128.1,35.2,130.2L35.2,130.2z"
				/>
			<path class="st1" d="M82.6,32.6c-1.2,0.6-2.6,1.4-2.6,1.7c0.3,0.2,6.6-3,6.9-3.5c0,0,0,0-0.1,0C86.3,30.8,84.4,31.7,82.6,32.6
				L82.6,32.6z"/>
			<path class="st1" d="M75.6,213.8c1.6,1,3.5,2,3.7,1.9c-0.1-0.4-5.9-4-6.6-4.1h0C72.6,211.9,74.1,212.9,75.6,213.8L75.6,213.8z"/>
			<path class="st1" d="M48,58.6c-0.8,0.9-2.3,2.8-2.3,3c0.3,0,5.1-5.7,5.1-6l0,0C50.5,55.7,49.2,57.2,48,58.6L48,58.6z"/>
		</g>
		<g>
			<path class="st2" d="M127,228.4c0.1,0,0.1,0,0.1,0C127.1,228.4,127.1,228.4,127,228.4L127,228.4z"/>
			<path class="st2" d="M29.2,98.8c-0.1,0.1-0.1,0.2-0.2,0.3c2.1-11.8,3.5-17.4,11.1-30c0.2-0.3,0.5-0.7,0.7-1
				C33.5,80.2,31.6,85.3,29.2,98.8C29.2,98.8,29.2,98.8,29.2,98.8L29.2,98.8z"/>
			<path class="st2" d="M47.8,58.7c0.1-0.2,0.3-0.3,0.4-0.5c0.5-0.2,1.2-0.4,10.3-0.8c-0.1,0.2-0.3,0.3-0.4,0.5
				C53,58.1,48.3,58.3,47.8,58.7L47.8,58.7z"/>
			<path class="st2" d="M28.3,101.1c-0.1,0.2-0.1,0.4-0.1,0.6c-0.9-2.5-1-2.9-0.5-4.9c0.1-0.2,0.1-0.5,0.2-0.7
				C27.5,98.5,27.5,98.9,28.3,101.1C28.3,101.1,28.3,101.1,28.3,101.1L28.3,101.1z"/>
			<path class="st2" d="M30.3,161.5c-0.1-0.3-0.2-0.5-0.3-0.7c-0.4-1.3-1-3.1-1.3-4.5C29.4,158,29.7,159.7,30.3,161.5L30.3,161.5z"
				/>
			<path class="st2" d="M24.6,111c0-0.3,0.1-0.5,0.1-0.7c1-3.6,1-3.9,3-6.9c0,0.2,0,0.4-0.1,0.6c-0.4,0.9-1.2,1.9-1.7,2.7
				C25.3,107.9,24.9,109.7,24.6,111L24.6,111z"/>
			<path class="st2" d="M27.7,152.8c0.1,0.2,0.1,0.4,0.1,0.5c-0.3-0.8-0.7-1.8-1-2.6c-0.1-0.2-0.1-0.5-0.2-0.7L27.7,152.8
				C27.7,152.7,27.7,152.7,27.7,152.8L27.7,152.8z"/>
			<path class="st2" d="M126.9,228.4c0.1,0,0.1,0,0.1,0c-0.1,0-0.3,0-0.4,0C126.7,228.4,126.8,228.4,126.9,228.4
				C126.9,228.4,126.9,228.4,126.9,228.4L126.9,228.4z"/>
			<path class="st2" d="M92.8,222.5c-0.2-0.1-0.5-0.2-0.7-0.2c-0.8-0.3-1.9-0.7-2.7-1.1C90.5,221.6,91.7,222.1,92.8,222.5
				L92.8,222.5z"/>
			<path class="st2" d="M126.1,228.4c0.2,0,0.4,0,0.6,0c-2.1,0-2.7,0-5-0.1c-0.2,0-0.5,0-0.7,0C123.2,228.3,123.7,228.3,126.1,228.4
				C126.1,228.3,126.1,228.4,126.1,228.4L126.1,228.4z"/>
			<path class="st2" d="M37.1,175.8c-0.3-0.5-0.5-0.9-0.7-1.3c-4.1-8.4-4.6-9.3-6.9-16.7c0,0.1,0.1,0.1,0.1,0.2
				c0.9,2,1.6,4.8,2.3,6.9C33,168.3,35.4,172.6,37.1,175.8L37.1,175.8z"/>
			<path class="st2" d="M87,220.2c0.2,0.1,0.3,0.1,0.5,0.2c-1.1-0.5-2.6-1-3.7-1.6c-0.2-0.1-0.4-0.2-0.7-0.3
				C84.2,219,85.8,219.7,87,220.2C87,220.2,87,220.2,87,220.2L87,220.2z"/>
			<path class="st2" d="M61.7,205.1c-0.2-0.2-0.4-0.3-0.6-0.5c-3.6-3.3-5.4-4.9-7.5-8.7c0.1,0.1,0.3,0.3,0.5,0.4
				c0.7,0.8,1.3,2,1.8,2.9C56,199.2,57.5,201.6,61.7,205.1L61.7,205.1z"/>
			<path class="st2" d="M124.4,21.7c0.2,0,0.5,0,0.7,0c0.3,0,0.5,0,0.7,0C125.4,21.7,124.9,21.7,124.4,21.7L124.4,21.7z"/>
			<path class="st2" d="M104.8,24c0.3-0.1,0.6-0.1,0.9-0.2c6.6-1.2,9.6-1.8,17.7-2.2C114.6,22,108,23.4,104.8,24L104.8,24z"/>
			<path class="st2" d="M83.9,31.1c0.2-0.1,0.4-0.2,0.6-0.3c1.2-0.5,2.8-1.1,9-2.1c-0.2,0.1-0.3,0.2-0.5,0.3c-0.6,0.2-1.4,0.2-2,0.3
				C90.5,29.4,85.8,30.2,83.9,31.1L83.9,31.1z"/>
			<path class="st2" d="M52.1,53.9c0.2-0.2,0.4-0.4,0.6-0.6c5-4.8,15.4-14.6,39.1-23.6c-1.6,0.9-4,1.7-5.7,2.4
				c-4.7,1.9-11.9,5.5-15.8,7.9C60.7,45.7,56.2,49.6,52.1,53.9L52.1,53.9z"/>
			<path class="st2" d="M96.8,27.5c-0.1,0-0.2,0.1-0.3,0.1c7.6-3.1,12.5-4.9,25.7-5.8c0.1,0,0.3,0,0.4,0
				C113.7,22.5,107.2,23,96.8,27.5C96.8,27.5,96.8,27.5,96.8,27.5L96.8,27.5z"/>
			<path class="st2" d="M94.9,28.8c0.6-0.3,0.8-0.4,17.6-1.1c-0.1,0.1-0.1,0.2-0.2,0.2C106.5,28.2,100.7,28.4,94.9,28.8L94.9,28.8z"
				/>
			<path class="st2" d="M123.2,228.3c0.1,0,0.1,0,0.2,0c-9.2-0.7-17.9-1.4-30.9-6l-0.1-0.1C101.2,225.1,109.6,227.7,123.2,228.3
				C123.2,228.3,123.2,228.3,123.2,228.3L123.2,228.3z"/>
			<path class="st2" d="M85.4,219.4c-0.1-0.1-16.2-6.6-30-22c2,1,3.7,3.8,5.3,5.4C61.1,203.1,70.3,212.4,85.4,219.4L85.4,219.4z"/>
			<path class="st2" d="M88.7,220.7c-0.7-0.3-0.9-0.3-1.2-0.8c-0.2-0.3-0.3-0.8-0.2-1.1c0.1-0.6,1.1-1.2,1.9-1.7
				c0.2,0.1,0.3,0.2,0.5,0.3c-1.2,0.7-1.6,1-1.8,1.8C87.7,219.8,88.1,220.2,88.7,220.7L88.7,220.7z"/>
			<path class="st2" d="M27.7,150.7c-2-10.2-4.4-22.9,0.1-44.5C25.6,118.8,23.6,130.7,27.7,150.7L27.7,150.7z"/>
			<path class="st2" d="M30.1,99.2c0-0.1,4.7-16.7,27.1-39.1c0,0.1,0,0.1,0,0.2C46.5,71.4,37.7,81.5,30.1,99.2L30.1,99.2z"/>
			<path class="st2" d="M59.6,107.2c0,0.2-0.1,0.3-0.1,0.5c-4.9-0.5-21.6-2.2-29.9-4.6c0.1-0.2,0.1-0.4,0.1-0.7l0,0l0,0l0,0l0,0l0,0
				l0,0l0,0l0,0C35.1,103.9,41.7,105.1,59.6,107.2C59.6,107.1,59.6,107.2,59.6,107.2L59.6,107.2z"/>
			<path class="st2" d="M87.3,215.6c0,0,0.1,0.1,0.1,0.1c-6.2-3-19.3-9.1-31.7-19.1c-0.1-0.1-0.2-0.2-0.2-0.4
				C61.3,200.9,70.3,207.7,87.3,215.6C87.2,215.6,87.2,215.6,87.3,215.6L87.3,215.6z"/>
			<path class="st2" d="M87,195.3c0.1,0.1,0.1,0.3,0.2,0.3c-12.9,0-32.8-0.8-32.9-0.8c-0.1-0.2-0.3-0.3-0.4-0.5
				C57.2,194.6,62.9,194.8,87,195.3C87,195.3,87,195.3,87,195.3L87,195.3z"/>
			<path class="st2" d="M50.5,191.7c-6-7-14.2-16.6-20.7-33.5l0-0.2C33.6,166.9,38.2,178,50.5,191.7L50.5,191.7L50.5,191.7z"/>
			<path class="st2" d="M52.8,193.3c-0.1-0.1-9.3-11.8,18.6-34.7c0.1,0.1,0.2,0.3,0.3,0.4C61.4,168.4,48.5,180,52.8,193.3
				L52.8,193.3z"/>
			<path class="st2" d="M28.5,152.7c-0.1-0.2-5.1-16.4,31.1-43.3c0,0.1,0.1,0.3,0.1,0.5C46.7,120.3,28.9,134.5,28.5,152.7
				L28.5,152.7z"/>
			<path class="st2" d="M70.8,156.6c0,0.1,0.1,0.3,0.1,0.4c-14.6-0.2-36.9-1.4-41.6-2.2c-0.1-0.2-0.1-0.4-0.2-0.7
				C32.9,154.8,39.3,155.4,70.8,156.6C70.7,156.6,70.7,156.6,70.8,156.6L70.8,156.6z"/>
			<path class="st2" d="M207.2,190.2c1.4-2.3,2.6-4.3,1.2-7.9c0.1-0.2,0.3-0.3,0.4-0.5c0.7,2.5,1.3,4.6-1.1,7.9
				C207.4,189.9,207.3,190,207.2,190.2L207.2,190.2z"/>
			<path class="st2" d="M127,228.4L127,228.4L127,228.4L127,228.4L127,228.4z"/>
			<path class="st2" d="M124.4,228.3c-20.5-0.6-29-7-33.1-10.1c0.1,0.1,0.2,0.1,0.3,0.1c1.1,0.6,2.4,1.7,3.3,2.5
				c2.2,1.6,5.5,3.1,8.1,3.9C111.4,227.3,113.9,227.7,124.4,228.3L124.4,228.3z"/>
			<path class="st2" d="M127.4,228.4c1.7,0,5.8-0.3,14.6-1.6C141.6,226.8,133.5,228.2,127.4,228.4L127.4,228.4z"/>
			<path class="st2" d="M61.5,104.2c-0.1,0.1-0.3,0.2-0.4,0.3C57.9,94,53,78.1,58.8,60.3c0.1-0.1,0.3-0.2,0.4-0.3
				C55.7,72.8,54.9,84.1,61.5,104.2C61.5,104.2,61.5,104.2,61.5,104.2L61.5,104.2z"/>
			<path class="st2" d="M62.2,54.6c-0.1,0-0.1,0-0.2,0c5.9-7.1,13.2-16.1,29-24.4h0.2C83,34.9,73.6,40.2,62.2,54.6
				C62.3,54.6,62.2,54.6,62.2,54.6L62.2,54.6z"/>
			<path class="st2" d="M90.2,52.7c-0.1,0.1-0.2,0.2-0.3,0.3c-2.9-5.2-8.2-14.8,2.8-23.1c0.2-0.1,0.3-0.1,0.5-0.2
				C89,33,82.2,38.8,90.2,52.7C90.3,52.6,90.2,52.6,90.2,52.7L90.2,52.7z"/>
			<path class="st2" d="M61.5,57.6c0.1-0.1,0.2-0.3,0.3-0.4c3.9-0.5,7.6-1,26.9-2.6c-0.1,0.2-0.1,0.3-0.2,0.5
				C73.8,56.2,69,56.7,61.5,57.6L61.5,57.6z"/>
			<path class="st2" d="M89.3,215.8c-0.1,0-6.3-4.7-0.9-18.5c0.2,0.2,0.3,0.2,0.5,0.3C86.4,204.4,85.2,209,89.3,215.8L89.3,215.8z"
				/>
			<path class="st2" d="M126,228.3c0.1,0,0.1,0,0.2,0c-7.4-0.6-15.5-1.8-33.1-9.8c0-0.1-0.1-0.1-0.1-0.2
				C103.4,223.1,113.9,227.5,126,228.3C126,228.3,126,228.3,126,228.3L126,228.3z"/>
			<path class="st2" d="M121.6,226.9c0,0,0.1,0.1,0.1,0.1c-14.9-4-22.8-6.8-29.2-9c-0.1-0.1-0.2-0.2-0.3-0.3
				C98.5,219.9,106.4,222.7,121.6,226.9L121.6,226.9L121.6,226.9z"/>
			<path class="st2" d="M72.7,153.2c-0.1,0-0.2,0.1-0.3,0.1c-2.5-6.8-7.6-20.9-9.9-41.4c0.1,0,0.4-0.1,0.5-0.1
				C64.4,121.2,66.1,134.3,72.7,153.2C72.8,153.2,72.8,153.2,72.7,153.2L72.7,153.2z"/>
			<path class="st2" d="M64.2,104c-0.1-0.1-0.3-0.1-0.5-0.2C70.5,87.3,76,76.1,89,57.3c0.1,0,0.1,0.1,0.2,0.1
				C78.6,73.6,72.6,83,64.2,104L64.2,104z"/>
			<path class="st2" d="M120.3,116.5c-0.1,0.1-0.2,0.1-0.3,0.2C95.8,80.3,92.6,63.6,91.3,57.3c0.1-0.1,0.3-0.2,0.5-0.3
				C95,71.8,99.7,83.4,120.3,116.5C120.4,116.4,120.4,116.4,120.3,116.5L120.3,116.5z"/>
			<path class="st2" d="M118.3,119.2c0,0.2-0.1,0.4-0.1,0.6c-17.9-3.3-35.5-6.7-52.8-10.9c0.1-0.2,0.1-0.5,0.1-0.7
				C74.6,110.3,87.1,113.3,118.3,119.2C118.3,119.1,118.3,119.1,118.3,119.2L118.3,119.2z"/>
			<path class="st2" d="M93.2,51.9c-0.1,0-0.2-0.1-0.3-0.1c3.9-5.8,9.8-14.6,19-22.6c0,0,0.1,0,0.1,0C107.2,33.8,101.8,39,93.2,51.9
				L93.2,51.9z"/>
			<path class="st2" d="M93.9,54.2c0-0.1,0.1-0.3,0.1-0.5c13.2-3,26.6-5.7,39.8-8.7c0,0.1,0.1,0.3,0.1,0.4
				C120.7,48.4,107.3,51.2,93.9,54.2L93.9,54.2z"/>
			<path class="st2" d="M76.5,155.1c-0.1-0.1-0.2-0.3-0.3-0.4c5-4.6,14.3-13.2,42.4-32.4c0.1,0.1,0.2,0.3,0.3,0.5
				C85.6,146.8,85.6,146.8,76.5,155.1L76.5,155.1z"/>
			<path class="st2" d="M121.5,226.6c-3.3-1.9-13.4-7.6-30-28.3c0.1,0,0.2-0.1,0.3-0.1C96.8,204.3,109.9,220.3,121.5,226.6
				L121.5,226.6L121.5,226.6z"/>
			<path class="st2" d="M88.1,192.6c-0.1,0-0.1,0-0.2,0c-4.8-8.9-8-15.5-13.2-31.8c0.2,0,0.3,0,0.5-0.1
				C79,172.4,81.3,179.2,88.1,192.6C88.2,192.6,88.2,192.6,88.1,192.6L88.1,192.6z"/>
			<path class="st2" d="M125.3,161.5c0,0.1,0,0.2,0,0.3c-3.9-0.2-15.6-0.9-48.1-4.1c0-0.4,0-0.4-0.1-0.6
				C89.4,158.2,100,159.3,125.3,161.5L125.3,161.5L125.3,161.5z"/>
			<path class="st2" d="M123.5,206.9c0,0.1,0,0.1-0.1,0.2c-2.5-0.8-10.1-3.1-31-10.3c0-0.2,0-0.2-0.1-0.5
				C96.3,197.7,96.3,197.7,123.5,206.9C123.5,206.9,123.5,206.9,123.5,206.9L123.5,206.9z"/>
			<path class="st2" d="M126.3,205.4c-0.1,0-0.3,0-0.4,0c0.3-6.7,0.5-11.5,2.8-39.7c0.3,0,0.3,0,0.7,0
				C127.8,183.7,126.9,194.4,126.3,205.4L126.3,205.4z"/>
			<path class="st2" d="M91.1,194c-0.1-0.1-0.2-0.2-0.3-0.3c5-6.2,11.8-13.5,35-29.7c0.1,0.1,0.2,0.3,0.3,0.4
				C108.4,177.5,99.4,184,91.1,194L91.1,194z"/>
			<path class="st2" d="M134.1,43.2c-0.1,0.1-0.1,0.2-0.1,0.3c-12.8-7.3-17.1-10.5-20.1-14.8c0.1-0.1,0.2-0.1,0.3-0.2
				C117.4,33.1,121.5,35.9,134.1,43.2C134.1,43.2,134.1,43.2,134.1,43.2L134.1,43.2z"/>
			<path class="st2" d="M125.3,21.7c0.7,0,1.4,0,2.1,0c0.1,0,0.2,0,0.3,0c-0.1,0-0.2,0-0.3,0c0,0-0.1,0-0.1,0c-0.1,0-0.2,0-0.3,0
				c-0.1,0-0.1,0-0.1,0c-0.1,0-0.2,0-0.3,0c0,0-0.1,0-0.1,0c-0.1,0-0.2,0-0.3,0c-0.1,0-0.2,0-0.2,0c0,0-0.1,0-0.1,0
				c-0.1,0-0.1,0-0.2,0s-0.1,0-0.1,0C125.4,21.7,125.4,21.7,125.3,21.7C125.4,21.7,125.3,21.7,125.3,21.7L125.3,21.7z"/>
			<path class="st2" d="M113.1,27.2c-0.1,0.1-0.1,0.1-0.2,0.2c-1.4-1-5-3.9,4.9-5.2c2.3-0.3,4.8-0.4,6.2-0.5c0.2,0,0.4,0,0.7,0
				c-11.1,0.5-15.2,2.1-12.2,5C112.7,26.8,113,27,113.1,27.2C113.2,27.2,113.1,27.2,113.1,27.2L113.1,27.2z"/>
			<path class="st2" d="M115.3,27.4c0-0.1,0.1-0.1,0.1-0.1c0.9-0.4,2.2-0.7,3.1-1c8.1-2.5,10.3-3.3,10.5-4.2c-0.3-0.1-0.7-0.3-1-0.3
				c0.9,0.1,0.9,0.1,1.2,0.4C128.7,22.9,127.4,23.6,115.3,27.4L115.3,27.4z"/>
			<path class="st2" d="M127,228.4L127,228.4L127,228.4C127.1,228.4,127.1,228.4,127,228.4L127,228.4z"/>
			<path class="st2" d="M126.9,228.4c-0.6,0-2.1-0.1-2.1-0.1c-0.6-0.1-1.4-0.4-1.9-0.7c0.4,0.1,0.7,0.4,1,0.5
				C124.8,228.2,126,228.3,126.9,228.4L126.9,228.4z"/>
			<path class="st2" d="M189.6,42.8L189.6,42.8c-0.1-0.1-0.3-0.3-0.5-0.4C189.3,42.5,189.5,42.7,189.6,42.8L189.6,42.8z"/>
			<path class="st2" d="M128.8,21.7c0,0-0.4,0-1,0c-0.1,0-0.2,0-0.3,0c0.1,0,0.1,0,0.1,0c0,0,0.1,0,0.1,0c0,0,0.1,0,0.1,0
				c0,0,0,0,0.1,0s0.1,0,0.1,0c0,0,0,0,0.1,0h0l0,0C128.4,21.7,128.6,21.7,128.8,21.7L128.8,21.7z"/>
			<path class="st2" d="M122.2,226.7c-0.1,0-4.9-2,2.5-16.9c0.2,0.1,0.2,0.1,0.4,0.2C122.5,215.5,118.9,223,122.2,226.7L122.2,226.7
				z"/>
			<path class="st2" d="M127.4,228.4c-0.1,0-0.1,0-0.2,0c0.2,0,0.5,0,0.7-0.1c0,0,0-0.1,0-0.1c-0.6-0.2-1-0.3-4.2-0.8
				c-0.1,0-0.1-0.1-0.1-0.1c4,0.7,4.4,0.8,4.6,0.9C127.9,228.3,127.6,228.4,127.4,228.4C127.4,228.4,127.4,228.4,127.4,228.4
				L127.4,228.4z"/>
			<path class="st2" d="M137.1,42.5c-0.2-0.1-0.2-0.1-0.4-0.1c1-6.6,3-19-7.6-20.6C134.4,22.3,140.1,26.3,137.1,42.5L137.1,42.5z"/>
			<path class="st2" d="M128.6,228.3c4.7-0.5,8.6-1.9,13.4-4.1c0,0,0,0.1,0,0.1C136.4,226.6,133.7,227.7,128.6,228.3L128.6,228.3z"
				/>
			<path class="st2" d="M128.4,228.3c0,0-0.1,0-0.1,0c6.4-1.3,8.3-4.7-1.1-18.4c0.2-0.1,0.2-0.1,0.3-0.2
				C134.6,220.3,137,226.8,128.4,228.3L128.4,228.3L128.4,228.3z"/>
			<path class="st2" d="M128.3,207c0-0.1-0.1-0.2-0.1-0.3c4.9-2.4,4.9-2.4,25-11.5c0,0.1,0,0.2,0,0.3
				C145,199.4,136.6,203.1,128.3,207L128.3,207z"/>
			<path class="st2" d="M144.4,222.5c-0.1,0.1-0.2,0.1-0.3,0.1c-0.9-3-2.7-6.1-16.1-13.4c0.1-0.1,0.1-0.2,0.2-0.3
				C136.4,213.5,143.8,218,144.4,222.5C144.4,222.4,144.4,222.4,144.4,222.5L144.4,222.5z"/>
			<path class="st2" d="M123.6,116.1c-0.2-0.1-0.5-0.1-0.7-0.1c9-40,12-53.5,13.1-68.8c0.1,0,0.2,0.1,0.3,0.1
				C135.4,63.1,133.1,73.3,123.6,116.1L123.6,116.1z"/>
			<path class="st2" d="M219.8,170.6c-2,3-3.6,5.3-10.1,9.6c0.1-0.2,0.1-0.4,0.3-0.5c0.9-0.8,2.3-1.6,3.2-2.3
				c0.8-0.5,4.7-3.4,6.9-7.4C220,170.2,219.9,170.4,219.8,170.6L219.8,170.6z"/>
			<path class="st2" d="M125.5,117.3c-0.1-0.1-0.3-0.3-0.4-0.4c28.8-32,28.8-32,36.8-44.3c0.1,0.1,0.3,0.2,0.4,0.3
				C154.8,85,147.2,94.1,125.5,117.3L125.5,117.3z"/>
			<path class="st2" d="M155,191.7c-0.1,0.1-0.2,0.2-0.3,0.3c-4.9-7-8.7-12.5-22.9-27c0.2-0.2,0.3-0.2,0.5-0.4
				C142.1,174.6,148.5,181.5,155,191.7C155.1,191.7,155,191.7,155,191.7L155,191.7z"/>
			<path class="st2" d="M184.8,167.1c0,0.1-0.1,0.2-0.1,0.3c-17.2-1.2-34.4-3.2-51.6-4.7c0-0.2,0.1-0.4,0.1-0.6
				C154.3,163.9,168.7,165.2,184.8,167.1C184.8,167.1,184.8,167.1,184.8,167.1L184.8,167.1z"/>
			<path class="st2" d="M128.9,158.3c-0.1,0-0.3,0.1-0.5,0.1c-2.9-16.2-5.5-32.2-5.8-34c0.3,0,0.4,0,0.7-0.1
				C125.2,135.6,127.1,146.9,128.9,158.3C129,158.3,128.9,158.3,128.9,158.3L128.9,158.3z"/>
			<path class="st2" d="M187.5,123.9c0,0.1,0,0.3,0,0.4c-20.3-0.7-40.6-2.4-60.9-3.5c0-0.5,0-0.5,0-0.7
				C155,121.7,169.3,122.5,187.5,123.9C187.5,123.8,187.5,123.9,187.5,123.9L187.5,123.9z"/>
			<path class="st2" d="M132.9,160.4c-0.1-0.2-0.2-0.4-0.3-0.5c24.6-13.5,39.9-22.4,55.1-33.6c0.1,0.2,0.2,0.4,0.3,0.6
				C174.1,136.9,162.9,144.1,132.9,160.4L132.9,160.4z"/>
			<path class="st2" d="M161.2,67.6c-0.1,0.1-0.2,0.2-0.3,0.3c-7.5-7.1-15.1-14-22.6-21.1c0.1-0.1,0.2-0.1,0.3-0.3
				C146.1,53.5,153.7,60.5,161.2,67.6C161.2,67.6,161.2,67.6,161.2,67.6L161.2,67.6z"/>
			<path class="st2" d="M137.8,42.9c-0.2-0.1-0.2-0.1-0.4-0.2c3.7-7.1,6.2-13,1.3-17.9c1,0.3,3.2,3,3.1,6.5
				C141.5,35.2,140.3,38.2,137.8,42.9L137.8,42.9z"/>
			<path class="st2" d="M138.9,44.5c0-0.1-0.1-0.2-0.1-0.3c21.6-4.2,21.6-4.2,26.5-5.6c0.1,0.1,0.2,0.2,0.3,0.3
				C163.3,39.6,158,41.3,138.9,44.5L138.9,44.5z"/>
			<path class="st2" d="M198.3,60.6c-0.1,0-0.2,0-0.2,0c0,0,0,0,0,0l0,0l0,0l0,0l0,0l0,0l0,0l0,0c-11.1-15.3-21.6-25.8-42.9-34.1
				C172,33.2,184.4,41,198.3,60.6L198.3,60.6z"/>
			<path class="st2" d="M200.4,62.2c-0.1-0.1-0.3-0.3-0.4-0.4c-0.5-0.9-0.2-2.4-0.3-3.4c-0.3-2.9-2-7.7-8.4-14
				C193.8,46.3,199.8,52,200.4,62.2L200.4,62.2z"/>
			<path class="st2" d="M166.4,37.2c-0.1-0.1-0.3-0.1-0.5-0.3c-0.7-0.6-1-1.9-1.4-2.7c-2.1-4-8.2-6.8-11.1-8.2
				c2.3,0.7,6.5,3.3,7.1,3.8C164.3,33.1,164.4,33.3,166.4,37.2L166.4,37.2z"/>
			<path class="st2" d="M163.8,36.7c0,0,0,0.1,0,0.1c-9.4-5.4-14.6-8.2-23.9-12l-0.1-0.1C148.7,28.3,154.1,31,163.8,36.7L163.8,36.7
				L163.8,36.7z"/>
			<path class="st2" d="M188.5,164L188.5,164L188.5,164L188.5,164L188.5,164L188.5,164L188.5,164L188.5,164c-0.1,0-0.3,0-0.4,0
				c1.7-10.8,3-18.7,2.5-35.3l0,0l0,0l0,0l0,0l0,0l0,0l0,0l0,0c0.2,0,0.3,0,0.5-0.1C191.2,139.7,191.4,148.5,188.5,164L188.5,164
				L188.5,164z"/>
			<path class="st2" d="M149.9,24.9c0.1,0,0.3,0.1,0.4,0.1c-3.7-0.7-13.5-2.7-22-3.3c-0.1,0-0.2,0-0.3,0
				C136.7,22.2,146.6,24.2,149.9,24.9C149.9,24.9,149.9,24.9,149.9,24.9L149.9,24.9z"/>
			<path class="st2" d="M135.8,23.3L135.8,23.3c-1.9-0.5-4.5-1.2-6.5-1.5c0,0-0.1,0-0.1,0C131.1,22.1,133.8,22.7,135.8,23.3
				L135.8,23.3L135.8,23.3z"/>
			<path class="st2" d="M150.7,25.2c0.2,0.1,0.2,0.1,0.5,0.1c-2.3-0.3-5.1-0.6-12.4-1.2c-0.1-0.1-0.2-0.1-0.3-0.1
				C141.5,24.3,146.5,24.7,150.7,25.2C150.7,25.1,150.7,25.1,150.7,25.2L150.7,25.2z"/>
			<path class="st2" d="M197.5,61.1c0,0.1,0,0.1,0,0.1c-6.7-5.7-15-12.9-27.9-21c0-0.1,0-0.2,0-0.2C175.8,44.2,186.5,51,197.5,61.1
				C197.5,61.1,197.5,61.1,197.5,61.1L197.5,61.1z"/>
			<path class="st2" d="M165.2,67.8c-0.2-0.2-0.3-0.2-0.5-0.3c2.7-7.2,6.5-17.1,2.6-27.4C167.3,40.2,173.2,48.3,165.2,67.8
				L165.2,67.8z"/>
			<path class="st2" d="M193.7,124.2c0-0.3,0-0.4-0.1-0.7c10.3-2.1,12.7-2.6,19.9-4.5c0,0.3,0,0.4,0.1,0.7
				C206.4,121.6,204,122.1,193.7,124.2L193.7,124.2z"/>
			<path class="st2" d="M189.5,120.4c-0.1,0-0.2,0.1-0.3,0.1c-6.2-15.4-10.3-25.6-23.7-47c0.1-0.1,0.3-0.1,0.4-0.2
				C174.2,86.6,182.2,100.1,189.5,120.4C189.5,120.4,189.5,120.4,189.5,120.4L189.5,120.4z"/>
			<path class="st2" d="M166.8,70.2c-0.1-0.1-0.1-0.3-0.1-0.4c26.9-4.6,26.9-4.6,32-5.9c0.1,0.2,0.2,0.4,0.4,0.5
				C193.3,65.8,186.1,67.4,166.8,70.2L166.8,70.2z"/>
			<path class="st2" d="M192.5,121c-0.1-0.1-0.3-0.3-0.5-0.4c8.7-20.2,12.9-35.6,8.6-54.4C200.8,66.4,209.7,82.3,192.5,121
				L192.5,121z"/>
			<path class="st2" d="M145.9,221.9c0,0-0.1,0-0.1,0c3.8-4.1,8.9-9.7,10-25.1c0.2-0.1,0.3-0.1,0.5-0.1
				C155.5,203.7,154.3,214.4,145.9,221.9C145.9,221.9,145.9,221.9,145.9,221.9L145.9,221.9z"/>
			<path class="st2" d="M159,192.1c0-0.1-0.1-0.2-0.1-0.3c17-13.9,17.6-14.4,25.7-21.8c0,0.1,0.1,0.2,0.1,0.3
				C178.3,176.2,174.1,180.1,159,192.1L159,192.1z"/>
			<path class="st2" d="M184.2,206.3c-0.1,0.1-0.3,0.2-0.4,0.3c-2.1-2.3-5.4-5.7-25.4-11.7c0.1-0.2,0.2-0.3,0.3-0.5
				C166.4,196.8,180.7,201.2,184.2,206.3C184.2,206.3,184.2,206.3,184.2,206.3L184.2,206.3z"/>
			<path class="st2" d="M143.9,226.3c-0.2,0-0.3,0.1-0.5,0.1c0.5-0.3,1.2-0.5,1.4-1c0.3-0.8,0.3-0.9-0.4-1.8
				c0.1-0.1,0.3-0.1,0.4-0.2c0.3,0.3,0.8,0.9,0.7,1.3C145.2,225.5,145.1,225.6,143.9,226.3C143.9,226.3,143.9,226.3,143.9,226.3
				L143.9,226.3z"/>
			<path class="st2" d="M146.1,222.6c1.1-0.9,3.1-1.1,4.4-1.6c14.9-5.2,22.9-8.7,31.7-13C182.1,208.1,172.9,213.7,146.1,222.6
				L146.1,222.6z"/>
			<path class="st2" d="M187.3,204.7C187.3,204.6,187.3,204.6,187.3,204.7c7.7-7.2,10.9-10.2,18.4-20.4c0,0,0.1,0,0.1,0.1
				C199.7,192.4,196.9,196.1,187.3,204.7L187.3,204.7z"/>
			<path class="st2" d="M185.9,205.1c-0.1,0.1-0.2,0.1-0.3,0.2c5.9-9.8,8.1-18.3,2.7-34.8c0.2-0.2,0.3-0.2,0.5-0.4
				C192.8,183.5,193.6,193.1,185.9,205.1C185.9,205.1,185.9,205.1,185.9,205.1L185.9,205.1z"/>
			<path class="st2" d="M184.9,39.4l2.5,1.8c-1.2-0.8-2.3-1.6-3.5-2.4C184.3,39,184.6,39.2,184.9,39.4L184.9,39.4z"/>
			<path class="st2" d="M187.3,41.2c0.1,0.1,0.2,0.2,0.3,0.2c-10.5-6.7-17.4-10.3-32.8-15.2c-0.1,0-0.3-0.1-0.3-0.1
				C168.8,30.7,175.8,33.9,187.3,41.2C187.3,41.2,187.3,41.2,187.3,41.2L187.3,41.2z"/>
			<path class="st2" d="M221.9,92.5c0,0.1,0,0.2,0,0.3c-4.8-8.6-8-14.3-19.2-26.3c0-0.1,0-0.2,0-0.3
				C210.5,74.8,215.2,80.3,221.9,92.5C221.9,92.5,221.9,92.5,221.9,92.5L221.9,92.5z"/>
			<path class="st2" d="M215.7,114.6c-0.1,0-0.2,0-0.3,0c-1.2-12.4-2.7-27.8-13.6-47.7c0.1,0,0.2,0,0.3,0
				C207.2,76.7,214.1,90,215.7,114.6L215.7,114.6z"/>
			<path class="st2" d="M190.1,164.8c-0.1-0.1-0.2-0.3-0.3-0.3c10-12.8,18.1-24.1,24.6-42.4c0.1,0.1,0.2,0.3,0.3,0.4
				C210.9,132.6,206.5,144.1,190.1,164.8L190.1,164.8z"/>
			<path class="st2" d="M210.3,177.8C210.3,177.8,210.2,177.7,210.3,177.8c5-8.7,7.5-13,11-22.3c0,0,0.1,0.1,0.1,0.1
				C217.9,164.1,216,168.8,210.3,177.8L210.3,177.8z"/>
			<path class="st2" d="M207.5,179.9c-0.1,0.1-0.2,0.3-0.3,0.4c-3.9-3.9-6.8-6.2-17.6-11.3c0.1-0.3,0.2-0.3,0.3-0.6
				C199.3,172.9,203.4,175.3,207.5,179.9C207.5,179.8,207.5,179.8,207.5,179.9L207.5,179.9z"/>
			<path class="st2" d="M190.3,167c0.1-0.3,0.1-0.3,0.1-0.6c13.8-4.9,22.4-8.3,30.9-13.8c0,0.2-0.1,0.3-0.1,0.5
				C215.8,156.7,210,160.1,190.3,167L190.3,167z"/>
			<path class="st2" d="M217.2,116.5c-0.1-0.3-0.1-0.3-0.2-0.6c3.8-7.5,4.9-10.1,6.1-18.1C223.1,97.9,224.5,102.4,217.2,116.5
				L217.2,116.5z"/>
			<path class="st2" d="M222.8,148.5c-0.1,0.1-0.1,0.2-0.2,0.3c-0.6-7.5-1.1-14.7-5.7-26.5c0.1-0.2,0.1-0.2,0.3-0.4
				C220,129.9,222.6,137.4,222.8,148.5C222.8,148.5,222.8,148.5,222.8,148.5L222.8,148.5z"/>
			<path class="st2" d="M146.4,225.8c9.1-2.8,19.4-5.9,34.8-16.6C173.8,214.3,163.6,221.2,146.4,225.8L146.4,225.8z"/>
			<path class="st2" d="M194.2,203.5c-1.7,1-2.8,1.8-8.7,3.4c0.1-0.1,0.3-0.3,0.5-0.4c0.7-0.3,1.8-0.5,2.5-0.7
				c3.9-1.1,5.6-2.3,6.2-2.7C194.5,203.2,194.3,203.4,194.2,203.5L194.2,203.5z"/>
			<path class="st2" d="M166.8,220.4c7.1-3.3,12-5.8,16.5-11.9c0.2-0.1,0.3-0.2,0.5-0.3c-2.8,3.6-5.5,7-16.2,11.9
				C167.3,220.2,167,220.3,166.8,220.4L166.8,220.4z"/>
			<path class="st2" d="M194.2,46.5l-1.8-1.5c-0.1-0.1-0.2-0.2-0.3-0.3l1.4,1.1C193.7,46.1,194,46.3,194.2,46.5L194.2,46.5z"/>
			<path class="st2" d="M222.6,92.2c-1.9-1.4-1.8-5.2-2.5-7.4c-2-6.3-8.6-22.8-27.4-39.3C204,55.7,215.6,67.8,222.6,92.2L222.6,92.2
				z"/>
			<path class="st2" d="M222,84.1c1.6,5.1,1.7,5.4,1.7,10c-0.1-0.2-0.2-0.4-0.2-0.6c-0.2-1.1-0.1-2.7-0.1-3.9c-0.1-2-1-4.5-1.6-6.3
				C221.7,83.6,221.9,83.9,222,84.1L222,84.1z"/>
			<path class="st2" d="M144.1,23c2.2,0.4,5.5,1,7.5,2.1c-1-0.3-2-0.8-3-1.1c-1-0.3-2.6-0.7-5.2-1.1C143.6,23,143.8,23,144.1,23
				L144.1,23z"/>
			<path class="st2" d="M156.5,25.9c-0.9-0.2-1.6-0.3-3.9-0.5c-0.2-0.1-0.4-0.1-0.6-0.2c2.2,0.2,3,0.3,3.8,0.5
				C156.1,25.8,156.3,25.9,156.5,25.9L156.5,25.9z"/>
			<path class="st2" d="M223.8,161.5c0.6-3.1,0.9-4.6-0.5-8.1c0.1-0.2,0.1-0.4,0.2-0.6c1,3.2,1.5,4.8,0.6,8
				C223.9,161,223.8,161.3,223.8,161.5L223.8,161.5z"/>
			<path class="st2" d="M136.5,227.9c3-0.3,5-0.6,6.2-1.2c0.2,0,0.4-0.1,0.6-0.1c-0.9,0.4-1.8,0.8-6,1.2
				C137,227.9,136.8,227.9,136.5,227.9L136.5,227.9z"/>
			<path class="st2" d="M159.6,223.1c-3.6,1.1-6.8,2-15.5,3.3c5.4-1.2,10.9-1.9,16.2-3.5C160,223,159.8,223,159.6,223.1L159.6,223.1
				z"/>
			<path class="st2" d="M223.8,147.9c3.2-17.8,4.3-27.8,0.5-48.2C227.5,115.7,228.2,127,223.8,147.9L223.8,147.9z"/>
			<path class="st2" d="M227.6,101.2c-1.2-2.5-1.2-2.5-3.1-4.2c-0.1-0.2-0.1-0.4-0.1-0.7c2.4,2.4,2.4,2.5,3.1,4.2
				C227.5,100.8,227.6,101,227.6,101.2L227.6,101.2z"/>
			<path class="st2" d="M230.3,128c-1,9.2-1.6,11.7-6.2,21.4c0-0.2,0-0.3,0-0.5c0.5-1.7,1.7-3.7,2.5-5.3c0-0.1,3.3-7.2,3.7-16.6
				C230.4,127.4,230.4,127.7,230.3,128L230.3,128z"/>
			<path class="st2" d="M29.1,154.5c0.3,1.1,1,3.6,0.7,3.8c-0.6-0.2-2.8-7.5-2.3-7.8C27.8,150.6,28.4,152.1,29.1,154.5L29.1,154.5z"
				/>
			<path class="st2" d="M89.3,221c1,0.4,2.1,0.8,3.1,1.3c-0.5,0-6.9-2.6-7.4-3l0,0C85.2,219.3,85.2,219.3,89.3,221L89.3,221z"/>
			<path class="st2" d="M29.8,102.4L29.8,102.4L29.8,102.4L29.8,102.4L29.8,102.4L29.8,102.4L29.8,102.4
				C29.8,102.4,29.8,102.4,29.8,102.4c-0.8,3.6-1.7,4.4-2,3.9c-0.7-1.3,0.9-7.7,2-7.8C30,98.4,30.5,98.9,29.8,102.4L29.8,102.4
				L29.8,102.4z"/>
			<path class="st2" d="M127,228.4c-2.2,0-3.9-0.1-3.9-0.1L127,228.4L127,228.4z"/>
			<path class="st2" d="M54,194.6c1.8,2.1,2.1,2.8,1.8,2.8c-1,0.1-5.8-5.3-5.2-5.8c0,0,0,0,0.1,0C51.1,191.7,52.4,192.8,54,194.6
				L54,194.6z"/>
			<path class="st2" d="M125.6,21.7c-1.6,0-2.6,0.1-4.1,0.1c0,0,2.2-0.1,5.5-0.1l0,0C126.6,21.6,126.1,21.6,125.6,21.7L125.6,21.7z"
				/>
			<path class="st2" d="M95.1,28.7c-2.5,1.2-3.9,1.6-4.1,1.5c0-0.5,5.6-2.8,6.6-2.9c0,0,0,0,0.1,0l0,0
				C97.6,27.5,97.3,27.7,95.1,28.7L95.1,28.7z"/>
			<path class="st2" d="M61.5,57.5c-2.2,3.1-4.2,3.5-4.3,2.6c-0.2-1.4,3.2-5.5,5-5.6C63.2,54.6,62.5,56.2,61.5,57.5L61.5,57.5z"/>
			<path class="st2" d="M91.3,217.1c2.1,1.4,1.8,1.6,1.6,1.6c-1.2,0.2-6.4-3-5.9-3.6c0.1-0.1,0.2-0.1,0.2-0.1
				C88.1,215.1,89.6,215.9,91.3,217.1L91.3,217.1z"/>
			<path class="st2" d="M65.6,107.8c-0.5,4.1-3.9,5-5.4,3.1c-1.5-2-0.4-7,2.8-7.1C64.5,103.7,65.9,105,65.6,107.8L65.6,107.8z"/>
			<path class="st2" d="M77.2,157c0.6,3.7-2.5,4.7-4.6,3.1c-2.4-1.9-2.6-6.6,0.4-6.9c0.1,0,0.3,0,0.3,0
				C75.7,153.3,76.9,155.3,77.2,157L77.2,157z"/>
			<path class="st2" d="M127,228.4c-0.8,0-1.4,0-1.4,0l0,0C126.1,228.3,126.6,228.4,127,228.4L127,228.4z"/>
			<path class="st2" d="M92.2,195.7c0.9,2.3-0.6,3.3-2.5,2.4c-2.3-1-4.1-4.5-2.2-5.3c0.3-0.2,0.7-0.2,0.8-0.2
				C90.3,192.7,91.6,194.3,92.2,195.7L92.2,195.7z"/>
			<path class="st2" d="M93.6,55c-1.4,2.9-4.7,3.2-5.2,1.6c-0.5-1.4,1.3-4.7,4.1-4.9C94.1,51.8,94.6,53.1,93.6,55L93.6,55z"/>
			<path class="st2" d="M114.9,27.9c-1.5,1.5-3.2,1.6-3.2,0.9c0.1-0.7,2.2-2.3,3.5-2.3C115.9,26.5,115.5,27.2,114.9,27.9L114.9,27.9
				z"/>
			<path class="st2" d="M123.4,227.3c0.7,0.4,0.7,0.5,0.7,0.5c-0.2,0.3-2.6-0.7-2.6-1.1c0-0.1,0.1-0.1,0.2-0.1
				C122.3,226.6,123.1,227.1,123.4,227.3L123.4,227.3z"/>
			<path class="st2" d="M126.6,120.3c-0.1,4.3-5,5.2-7.3,3c-2.3-2.2-1.4-7.1,3-7.2C124.4,116,126.7,117.3,126.6,120.3L126.6,120.3z"
				/>
			<path class="st2" d="M128.5,208c-0.2,2.3-3.1,2.8-4.5,1.3c-1.1-1.2-0.9-3.8,1.9-3.9C127.2,205.4,128.6,206.2,128.5,208L128.5,208
				z"/>
			<path class="st2" d="M133.2,162.1c-0.2,4-4.9,4.6-7,2.5c-1.9-2-0.9-6.2,3.1-6.3C132,158.3,133.3,160.2,133.2,162.1L133.2,162.1z"
				/>
			<path class="st2" d="M139,45c0.3,2.4-2.6,2.8-4.2,1.6c-1.6-1.3-1.4-4.1,0.8-4.3c0.1,0,0.2,0,0.3,0C137.5,42.3,138.8,43.4,139,45
				L139,45z"/>
			<path class="st2" d="M158.9,194.1c-1.1,2.9-4.7,3.7-5.5,1.8c-0.7-1.5,0.7-4.7,3.8-4.9C159.3,191.1,159.4,192.7,158.9,194.1
				L158.9,194.1z"/>
			<path class="st2" d="M127.7,21.7c0.9,0,1.6,0.1,1.6,0.1c0,0,0,0-0.2,0c-0.3,0-0.7-0.1-1-0.1c-0.5,0-0.8,0-1,0l0,0
				C127.2,21.6,127.5,21.6,127.7,21.7L127.7,21.7z"/>
			<path class="st2" d="M127,228.4c0.5,0,1.1-0.1,1.6-0.1C128.6,228.3,128,228.4,127,228.4L127,228.4z"/>
			<path class="st2" d="M166.9,70.6c0.7,2.9-2.1,4-4.4,2.4c-2.2-1.5-2.8-5.4-0.3-6c0.3-0.1,0.5-0.1,0.7-0.1
				C164.8,67,166.4,68.5,166.9,70.6L166.9,70.6z"/>
			<path class="st2" d="M138.6,24c1.1,0.5,1.5,0.8,1.3,0.9c-0.1,0-0.4,0.1-1.8-0.5c0,0-2.4-1-2.4-1.2c0,0,0,0,0.1,0
				C136.4,23.2,137.6,23.6,138.6,24L138.6,24z"/>
			<path class="st2" d="M145.2,223.2c-1.6,0.9-3.4,1.5-3.3,1c0.2-0.5,3-2.4,4.3-2.4c0.6,0,0.2,0.5,0.1,0.6
				C146.1,222.7,145.7,223,145.2,223.2L145.2,223.2z"/>
			<path class="st2" d="M193.7,124.9c-0.1,2.2-1.4,3.7-3.1,3.8l0,0l0,0l0,0l0,0l0,0l0,0l0,0l0,0c-3.6-0.1-3.9-6-1.8-7.8
				c0.8-0.7,1.5-0.7,1.8-0.7C192.5,120.3,193.9,122.2,193.7,124.9L193.7,124.9z"/>
			<path class="st2" d="M190.1,167.7c-1.2,3.6-4.5,4.4-5.4,2.6c-1-1.9,0.8-6.3,3.8-6.3l0,0l0,0l0,0l0,0l0,0l0,0l0,0l0,0
				C190.2,164,190.8,165.6,190.1,167.7L190.1,167.7z"/>
			<path class="st2" d="M168.4,38.7c1.3,1.3,1.3,2,0.5,2c-1.7,0-5.8-3.5-5-4.2c0.1-0.1,0.3-0.1,0.4-0.1
				C165.5,36.4,167.3,37.6,168.4,38.7L168.4,38.7z"/>
			<path class="st2" d="M143.5,226.6c-1.9,0.4-3.5,0.7-3.8,0.7c0.1-0.1,6.5-1.5,6.8-1.5h0C146.4,225.9,144.9,226.3,143.5,226.6
				L143.5,226.6z"/>
			<path class="st2" d="M217.7,119.3c0,3.2-1.5,4.5-2.8,3.3c-1.8-1.7-1.9-7.9,0.5-8C216.7,114.6,217.6,116.6,217.7,119.3
				L217.7,119.3z"/>
			<path class="st2" d="M201.8,64.1c1.2,2.1,1,3,0,2.8c-1.9-0.5-5.3-5.6-4.2-6.3c0.1-0.1,0.2-0.1,0.3-0.1l0,0l0,0l0,0l0,0l0,0l0,0
				l0,0l0,0C199,60.6,200.6,62.2,201.8,64.1L201.8,64.1z"/>
			<path class="st2" d="M152.2,25.3c1.5,0.5,2.8,0.9,3,1.1l0,0c-0.5,0-6.9-2-7.1-2.2h0C148.5,24.3,150.3,24.8,152.2,25.3L152.2,25.3
				z"/>
			<path class="st2" d="M185.1,207.2c-2.1,1.7-3.8,2.5-3.8,2c0-0.7,4.5-4.6,5.9-4.7c0.5,0,0.1,0.7-1,1.7
				C185.7,206.7,185.3,207,185.1,207.2L185.1,207.2z"/>
			<path class="st2" d="M209.1,181.1c-1.6,2.6-3.3,3.8-3.5,2.9c-0.3-1.3,2.8-6.2,4.4-6.4C210.7,177.7,210.4,179.1,209.1,181.1
				L209.1,181.1z"/>
			<path class="st2" d="M223.7,151.9c-0.9,3.2-2,4.2-2.4,3.6c-0.7-1.2,0.9-7.5,2.3-7.7C224.3,147.9,224.3,149.6,223.7,151.9
				L223.7,151.9z"/>
			<path class="st2" d="M224.3,95.9c0.8,2.8,0.6,4.2,0,3.8c-1.3-0.8-3.1-7.4-2.1-7.7c0,0,0.1,0,0.1,0
				C222.8,92,223.6,93.6,224.3,95.9L224.3,95.9z"/>
			<path class="st2" d="M190.3,43.3c1.1,0.8,2.6,2.1,2.6,2.2c-0.3-0.1-6.2-4.7-6.3-4.9C186.9,40.8,188.6,42,190.3,43.3L190.3,43.3z"
				/>
		</g>
	</g>
	<g>
		<g>
			<path class="st2" d="M632.7,67.8c-5.1-5.1-11.1-7.6-18.2-7.6s-13.2,2.5-18.3,7.6c-5.1,5.1-7.6,11.1-7.6,18.2
				c0,7.1,2.5,13.2,7.6,18.3c5.1,5,11.2,7.6,18.3,7.6c7.1,0,13.2-2.5,18.2-7.6c5.1-5.1,7.6-11.1,7.6-18.2
				C640.3,78.9,637.7,72.9,632.7,67.8z M632.1,103.6c-4.9,4.9-10.8,7.3-17.6,7.3c-6.9,0-12.8-2.4-17.7-7.3
				c-4.9-4.9-7.3-10.8-7.3-17.6c0-6.8,2.5-12.7,7.4-17.6c4.9-4.9,10.8-7.3,17.6-7.3s12.7,2.4,17.6,7.3c4.9,4.9,7.3,10.8,7.3,17.6
				C639.4,92.9,637,98.7,632.1,103.6z M632.7,67.8c-5.1-5.1-11.1-7.6-18.2-7.6s-13.2,2.5-18.3,7.6c-5.1,5.1-7.6,11.1-7.6,18.2
				c0,7.1,2.5,13.2,7.6,18.3c5.1,5,11.2,7.6,18.3,7.6c7.1,0,13.2-2.5,18.2-7.6c5.1-5.1,7.6-11.1,7.6-18.2
				C640.3,78.9,637.7,72.9,632.7,67.8z M632.1,103.6c-4.9,4.9-10.8,7.3-17.6,7.3c-6.9,0-12.8-2.4-17.7-7.3
				c-4.9-4.9-7.3-10.8-7.3-17.6c0-6.8,2.5-12.7,7.4-17.6c4.9-4.9,10.8-7.3,17.6-7.3s12.7,2.4,17.6,7.3c4.9,4.9,7.3,10.8,7.3,17.6
				C639.4,92.9,637,98.7,632.1,103.6z M632.7,67.8c-5.1-5.1-11.1-7.6-18.2-7.6s-13.2,2.5-18.3,7.6c-5.1,5.1-7.6,11.1-7.6,18.2
				c0,7.1,2.5,13.2,7.6,18.3c5.1,5,11.2,7.6,18.3,7.6c7.1,0,13.2-2.5,18.2-7.6c5.1-5.1,7.6-11.1,7.6-18.2
				C640.3,78.9,637.7,72.9,632.7,67.8z M632.1,103.6c-4.9,4.9-10.8,7.3-17.6,7.3c-6.9,0-12.8-2.4-17.7-7.3
				c-4.9-4.9-7.3-10.8-7.3-17.6c0-6.8,2.5-12.7,7.4-17.6c4.9-4.9,10.8-7.3,17.6-7.3s12.7,2.4,17.6,7.3c4.9,4.9,7.3,10.8,7.3,17.6
				C639.4,92.9,637,98.7,632.1,103.6z"/>
			<path class="st2" d="M614.5,56.7c-8.1,0-15.1,2.9-20.9,8.6c-5.8,5.7-8.6,12.6-8.6,20.8c0,8.2,2.9,15.1,8.6,20.8
				c5.8,5.7,12.7,8.6,20.9,8.6c8.1,0,15-2.9,20.8-8.6c5.8-5.7,8.6-12.7,8.6-20.8c0-8.1-2.9-15-8.6-20.8
				C629.5,59.5,622.6,56.7,614.5,56.7z M614.5,111.8c-7.1,0-13.2-2.5-18.3-7.6c-5.1-5-7.6-11.1-7.6-18.3c0-7.1,2.5-13.2,7.6-18.2
				c5.1-5.1,11.2-7.6,18.3-7.6s13.2,2.5,18.2,7.6c5.1,5.1,7.6,11.1,7.6,18.2c0,7.1-2.5,13.2-7.6,18.2
				C627.6,109.3,621.5,111.8,614.5,111.8z"/>
			<polygon class="st2" points="674.8,110 707.4,110 707.4,114.3 670.4,114.3 670.4,57.7 674.8,57.7 			"/>
			<path class="st2" d="M884.1,85.2h24.8v29.1h-4v-9.5c-2.4,3.4-5.5,6-9.3,7.8c-3.8,1.9-7.8,2.8-12.1,2.8c-8.2,0-15.1-2.9-20.9-8.6
				c-5.8-5.7-8.6-12.6-8.6-20.8c0-8.1,2.9-15.1,8.6-20.8c5.8-5.7,12.7-8.6,20.9-8.6c4.6,0,9,1,13.2,3.1c4.2,2.1,7.7,5,10.4,8.8v0.1
				l-3.6,2.5h-0.1c-2.4-3.2-5.3-5.7-8.8-7.4c-3.5-1.8-7.2-2.7-11.1-2.7c-6.8,0-12.7,2.4-17.6,7.3c-4.9,4.9-7.4,10.8-7.4,17.6
				c0,6.8,2.4,12.7,7.3,17.6c4.9,4.9,10.8,7.3,17.7,7.3c4.3,0,8.4-1.1,12.1-3.2c3.8-2.1,6.8-5.1,9-8.8v-9.9h-20.6V85.2z"/>
			<polygon class="st2" points="237.8,57.7 282.9,57.7 282.9,62.1 262.5,62.1 262.5,114.3 258.1,114.3 258.1,62.1 237.8,62.1 			"/>
			<polygon class="st2" points="794,57.7 832.9,57.7 832.9,62.1 798.4,62.1 798.4,84.4 827.8,84.4 827.8,88.6 798.4,88.6 798.4,110 
				832.9,110 832.9,114.3 794,114.3 			"/>
			<polygon class="st2" points="736.6,110 769.2,110 769.2,114.3 732.2,114.3 732.2,57.7 736.6,57.7 			"/>
			<polygon class="st2" points="360.5,57.7 364.7,57.7 364.7,114.3 360.3,114.3 360.3,67.1 337.5,112.5 334.4,112.5 311.7,67.2 
				311.7,114.3 307.3,114.3 307.3,57.7 311.5,57.7 336,106.6 			"/>
			<polygon class="st2" points="940.9,62.1 940.9,84.4 970.3,84.4 970.3,88.6 940.9,88.6 940.9,110 975.4,110 975.4,114.3 
				936.5,114.3 936.5,57.7 975.4,57.7 975.4,62.1 			"/>
			<path class="st2" d="M421.2,85.2H446v29.1h-4v-9.5c-2.4,3.4-5.5,6-9.3,7.8c-3.8,1.9-7.8,2.8-12.1,2.8c-8.2,0-15.1-2.9-20.9-8.6
				c-5.8-5.7-8.6-12.6-8.6-20.8c0-8.1,2.9-15.1,8.6-20.8c5.8-5.7,12.7-8.6,20.9-8.6c4.6,0,9,1,13.2,3.1c4.2,2.1,7.7,5,10.4,8.8v0.1
				l-3.6,2.5h-0.1c-2.4-3.2-5.3-5.7-8.8-7.4c-3.5-1.8-7.2-2.7-11.1-2.7c-6.8,0-12.7,2.4-17.6,7.3c-4.9,4.9-7.4,10.8-7.4,17.6
				c0,6.8,2.4,12.7,7.3,17.6c4.9,4.9,10.8,7.3,17.7,7.3c4.3,0,8.4-1.1,12.1-3.2c3.8-2.1,6.8-5.1,9-8.8v-9.9h-20.6V85.2z"/>
			<path class="st2" d="M560,98.6l4,2v0.1c-2.6,4.5-6.2,8.1-10.8,10.8c-4.6,2.7-9.5,4-14.7,4c-8.2,0-15.1-2.9-20.9-8.6
				c-5.8-5.7-8.6-12.6-8.6-20.8c0-8.1,2.9-15.1,8.6-20.8c5.8-5.7,12.7-8.6,20.9-8.6c5.2,0,10.1,1.3,14.6,4
				c4.6,2.7,8.2,6.2,10.8,10.8l-4,2h-0.1c-2.3-3.8-5.4-6.8-9.1-9c-3.8-2.2-7.9-3.3-12.3-3.3c-6.8,0-12.7,2.4-17.6,7.3
				c-4.9,4.9-7.4,10.8-7.4,17.6c0,6.8,2.4,12.7,7.3,17.6c4.9,4.9,10.8,7.3,17.7,7.3c3.6,0,7-0.7,10.2-2.2c3.2-1.5,6.1-3.6,8.5-6.3
				C558,101.4,559,100.2,560,98.6L560,98.6z"/>
		</g>
		<g>
			<path class="st1" d="M400.6,147l20.9,45.4h-3.8l-4.7-10.3h-28.5l-4.6,10.3H376l20.9-45.4H400.6z M386,179h25.5l-12.8-28.2
				L386,179z"/>
			<path class="st1" d="M476.1,147v28.2c0,5.3-1.7,9.6-5,13c-3.3,3.4-8,5.1-14,5.1s-10.7-1.7-14-5.1c-3.3-3.4-5-7.7-5-13V147h3.4
				v28.1c0,4.4,1.4,8,4.1,10.7c2.7,2.7,6.6,4.1,11.5,4.1c5,0,8.8-1.4,11.5-4.1c2.7-2.7,4.1-6.3,4.1-10.7V147H476.1z"/>
			<path class="st1" d="M500.5,181.1v0.2c0,2.6,1.3,4.7,3.9,6.3c2.6,1.7,6,2.5,10.4,2.5c4.1,0,7.3-0.8,9.6-2.3
				c2.3-1.6,3.4-3.6,3.4-6.1c0-1.2-0.3-2.2-0.8-3.2c-0.5-1-1.2-1.7-1.9-2.4c-0.7-0.6-1.8-1.3-3.2-1.9c-1.4-0.6-2.6-1.1-3.7-1.5
				c-1.1-0.4-2.6-0.8-4.5-1.4c-1.9-0.6-3.5-1.1-4.6-1.5c-1.1-0.4-2.5-1-4.2-1.8c-1.7-0.8-3-1.6-3.9-2.5c-0.9-0.8-1.7-1.9-2.4-3.2
				c-0.7-1.3-1-2.7-1-4.3c0-3.6,1.5-6.4,4.4-8.6s6.8-3.3,11.7-3.3c5,0,9,1.1,12.2,3.3c3.2,2.2,4.8,5,4.8,8.4v0.5h-3.4v-0.3
				c0-2.6-1.2-4.7-3.7-6.3c-2.5-1.7-5.8-2.5-9.9-2.5c-4,0-7,0.8-9.2,2.3c-2.2,1.6-3.3,3.6-3.3,6.1c0,0.9,0.1,1.8,0.4,2.6
				c0.3,0.8,0.8,1.5,1.5,2.2c0.7,0.6,1.4,1.2,2,1.7c0.7,0.5,1.6,0.9,2.9,1.4c1.2,0.5,2.3,0.9,3.1,1.2c0.9,0.3,2.1,0.7,3.6,1.2
				c1.5,0.5,2.6,0.8,3.3,1c0.7,0.2,1.8,0.6,3.2,1.1c1.4,0.5,2.5,1,3.3,1.4c0.8,0.4,1.7,1,2.7,1.7c1,0.7,1.8,1.5,2.4,2.2
				c0.5,0.7,1,1.6,1.4,2.7c0.4,1,0.6,2.2,0.6,3.3c0,3.6-1.5,6.4-4.5,8.6c-3,2.2-7.1,3.2-12.1,3.2c-5.2,0-9.4-1.1-12.7-3.3
				c-3.3-2.2-5-5-5-8.5v-0.5H500.5z"/>
			<path class="st1" d="M547.3,147h36.2v3.4h-16.4v42.1h-3.4v-42.1h-16.4V147z"/>
			<path class="st1" d="M623.4,147c4.7,0,8.5,1.4,11.3,4.2c2.8,2.8,4.2,6.3,4.2,10.4c0,3.3-0.9,6.2-2.7,8.7
				c-1.8,2.6-4.4,4.3-7.6,5.3l11.9,16.8h-4.2l-11.5-16.1c-0.3,0-0.8,0.1-1.4,0.1h-16.6v16.1h-3.4V147H623.4z M606.8,150.3v22.8h16.5
				c3.8,0,6.8-1.1,9-3.3c2.2-2.2,3.3-4.9,3.3-8.1c0-3.2-1.1-5.9-3.3-8.1c-2.2-2.2-5.2-3.3-9-3.3H606.8z"/>
			<path class="st1" d="M679.7,147l20.9,45.4h-3.8l-4.7-10.3h-28.5l-4.6,10.3h-3.8L676,147H679.7z M665.1,179h25.5l-12.8-28.2
				L665.1,179z"/>
			<path class="st1" d="M719.5,147h3.4v42.1h26.3v3.4h-29.7V147z"/>
			<path class="st1" d="M772.8,147v45.4h-3.4V147H772.8z"/>
			<path class="st1" d="M816.3,147l20.9,45.4h-3.8l-4.7-10.3h-28.5l-4.6,10.3h-3.8l20.9-45.4H816.3z M801.6,179h25.5l-12.8-28.2
				L801.6,179z"/>
		</g>
	</g>
</g>
</svg>
